KolarLatin-Light.ufo
<glyph name="numbersign" format="1">
  <advance width="633"/>
  <unicode hex="0023"/>
  <outline>
    <contour>
      <point x="570" y="285" type="line"/>
      <point x="440" y="285" type="line"/>
      <point x="462" y="439" type="line"/>
      <point x="589" y="439" type="line"/>
      <point x="598" y="489" type="line"/>
      <point x="471" y="489" type="line"/>
      <point x="503" y="714" type="line"/>
      <point x="441" y="714" type="line"/>
      <point x="410" y="489" type="line"/>
      <point x="271" y="489" type="line"/>
      <point x="304" y="714" type="line"/>
      <point x="242" y="714" type="line"/>
      <point x="209" y="489" type="line"/>
      <point x="72" y="489" type="line"/>
      <point x="64" y="439" type="line"/>
      <point x="200" y="439" type="line"/>
      <point x="178" y="285" type="line"/>
      <point x="43" y="285" type="line"/>
      <point x="35" y="234" type="line"/>
      <point x="168" y="234" type="line"/>
      <point x="132" y="0" type="line"/>
      <point x="193" y="0" type="line"/>
      <point x="229" y="234" type="line"/>
      <point x="368" y="234" type="line"/>
      <point x="335" y="0" type="line"/>
      <point x="396" y="0" type="line"/>
      <point x="431" y="234" type="line"/>
      <point x="562" y="234" type="line"/>
    </contour>
    <contour>
      <point x="399" y="439" type="line"/>
      <point x="378" y="285" type="line"/>
      <point x="240" y="285" type="line"/>
      <point x="261" y="439" type="line"/>
    </contour>
  </outline>
</glyph>
<glyph name="dollar" format="1">
  <advance width="594"/>
  <unicode hex="0024"/>
  <outline>
    <contour>
      <point x="326" y="-158" type="line"/>
      <point x="326" y="-9" type="line"/>
      <point x="465" y="-1"/>
      <point x="556" y="81"/>
      <point x="556" y="194" type="curve"/>
      <point x="556" y="299"/>
      <point x="490" y="358"/>
      <point x="326" y="433" type="curve"/>
      <point x="326" y="672" type="line"/>
      <point x="439" y="660"/>
      <point x="381" y="520"/>
      <point x="475" y="520" type="curve" smooth="yes"/>
      <point x="508" y="520"/>
      <point x="528" y="541"/>
      <point x="528" y="573" type="curve" smooth="yes"/>
      <point x="528" y="648"/>
      <point x="431" y="713"/>
      <point x="326" y="721" type="curve"/>
      <point x="326" y="835" type="line"/>
      <point x="269" y="835" type="line"/>
      <point x="269" y="723" type="line"/>
      <point x="166" y="715"/>
      <point x="71" y="646"/>
      <point x="71" y="535" type="curve"/>
      <point x="71" y="432"/>
      <point x="139" y="375"/>
      <point x="269" y="315" type="curve"/>
      <point x="269" y="43" type="line"/>
      <point x="197" y="46"/>
      <point x="176" y="80"/>
      <point x="163" y="125" type="curve" smooth="yes"/>
      <point x="150" y="175"/>
      <point x="133" y="225"/>
      <point x="89" y="225" type="curve" smooth="yes"/>
      <point x="57" y="225"/>
      <point x="35" y="202"/>
      <point x="35" y="160" type="curve" smooth="yes"/>
      <point x="35" y="67"/>
      <point x="142" y="-2"/>
      <point x="269" y="-8" type="curve"/>
      <point x="269" y="-158" type="line"/>
    </contour>
    <contour>
      <point x="162" y="581" type="curve"/>
      <point x="162" y="637"/>
      <point x="210" y="667"/>
      <point x="269" y="670" type="curve"/>
      <point x="269" y="458" type="line"/>
      <point x="203" y="490"/>
      <point x="162" y="526"/>
    </contour>
    <contour>
      <point x="455" y="154" type="curve"/>
      <point x="455" y="85"/>
      <point x="410" y="49"/>
      <point x="326" y="44" type="curve"/>
      <point x="326" y="293" type="line"/>
      <point x="426" y="248"/>
      <point x="455" y="212"/>
    </contour>
  </outline>
</glyph>
<glyph name="parenleft" format="1">
  <advance width="326"/>
  <unicode hex="0028"/>
  <outline>
    <contour>
      <point x="278" y="771" type="line"/>
      <point x="120" y="628"/>
      <point x="39" y="466"/>
      <point x="39" y="300" type="curve" smooth="yes"/>
      <point x="39" y="128"/>
      <point x="123" y="-37"/>
      <point x="285" y="-180" type="curve"/>
      <point x="315" y="-152" type="line"/>
      <point x="199" y="-25"/>
      <point x="154" y="132"/>
      <point x="154" y="316" type="curve" smooth="yes"/>
      <point x="154" y="466"/>
      <point x="186" y="582"/>
      <point x="307" y="745" type="curve"/>
    </contour>
  </outline>
</glyph>
<glyph name="asterisk" format="1">
  <advance width="468"/>
  <unicode hex="002A"/>
  <outline>
    <contour>
      <point x="279" y="371" type="curve" smooth="yes"/>
      <point x="279" y="403"/>
      <point x="253" y="419"/>
      <point x="250" y="496" type="curve"/>
      <point x="317" y="455"/>
      <point x="316" y="425"/>
      <point x="344" y="408" type="curve" smooth="yes"/>
      <point x="367" y="394"/>
      <point x="394" y="403"/>
      <point x="407" y="425" type="curve" smooth="yes"/>
      <point x="419" y="448"/>
      <point x="412" y="474"/>
      <point x="390" y="486" type="curve" smooth="yes"/>
      <point x="362" y="502"/>
      <point x="335" y="488"/>
      <point x="267" y="524" type="curve"/>
      <point x="335" y="562"/>
      <point x="362" y="546"/>
      <point x="390" y="562" type="curve" smooth="yes"/>
      <point x="412" y="575"/>
      <point x="419" y="601"/>
      <point x="407" y="624" type="curve" smooth="yes"/>
      <point x="394" y="647"/>
      <point x="367" y="654"/>
      <point x="344" y="641" type="curve" smooth="yes"/>
      <point x="317" y="625"/>
      <point x="316" y="594"/>
      <point x="250" y="554" type="curve"/>
      <point x="253" y="631"/>
      <point x="279" y="646"/>
      <point x="279" y="679" type="curve" smooth="yes"/>
      <point x="279" y="705"/>
      <point x="260" y="724"/>
      <point x="234" y="724" type="curve" smooth="yes"/>
      <point x="208" y="724"/>
      <point x="189" y="705"/>
      <point x="189" y="679" type="curve" smooth="yes"/>
      <point x="189" y="646"/>
      <point x="215" y="630"/>
      <point x="217" y="554" type="curve"/>
      <point x="151" y="594"/>
      <point x="151" y="624"/>
      <point x="123" y="641" type="curve" smooth="yes"/>
      <point x="101" y="654"/>
      <point x="74" y="647"/>
      <point x="61" y="624" type="curve" smooth="yes"/>
      <point x="48" y="601"/>
      <point x="55" y="576"/>
      <point x="78" y="562" type="curve" smooth="yes"/>
      <point x="105" y="547"/>
      <point x="132" y="561"/>
      <point x="200" y="524" type="curve"/>
      <point x="132" y="487"/>
      <point x="106" y="503"/>
      <point x="77" y="487" type="curve" smooth="yes"/>
      <point x="55" y="474"/>
      <point x="48" y="448"/>
      <point x="61" y="425" type="curve" smooth="yes"/>
      <point x="74" y="403"/>
      <point x="100" y="395"/>
      <point x="123" y="408" type="curve" smooth="yes"/>
      <point x="151" y="424"/>
      <point x="152" y="455"/>
      <point x="217" y="496" type="curve"/>
      <point x="215" y="418"/>
      <point x="188" y="403"/>
      <point x="188" y="371" type="curve" smooth="yes"/>
      <point x="188" y="344"/>
      <point x="208" y="325"/>
      <point x="234" y="325" type="curve" smooth="yes"/>
      <point x="260" y="325"/>
      <point x="279" y="344"/>
    </contour>
  </outline>
</glyph>
<glyph name="hyphen" format="1">
  <advance width="427"/>
  <unicode hex="002D"/>
  <outline>
    <contour>
      <point x="360" y="228" type="line"/>
      <point x="360" y="309" type="line"/>
      <point x="66" y="309" type="line"/>
      <point x="66" y="228" type="line"/>
    </contour>
  </outline>
</glyph>
<glyph name="period" format="1">
  <advance width="253"/>
  <unicode hex="002E"/>
  <outline>
    <contour>
      <point x="57" y="59" type="curve" smooth="yes"/>
      <point x="57" y="21"/>
      <point x="88" y="-9"/>
      <point x="126" y="-9" type="curve" smooth="yes"/>
      <point x="166" y="-9"/>
      <point x="197" y="21"/>
      <point x="197" y="59" type="curve" smooth="yes"/>
      <point x="197" y="99"/>
      <point x="166" y="131"/>
      <point x="126" y="131" type="curve" smooth="yes"/>
      <point x="88" y="131"/>
      <point x="57" y="99"/>
    </contour>
  </outline>
</glyph>
<glyph name="three" format="1">
  <advance width="587"/>
  <unicode hex="0033"/>
  <outline>
    <contour>
      <point x="405" y="200" type="curve" smooth="yes"/>
      <point x="405" y="296"/>
      <point x="358" y="351"/>
      <point x="285" y="355" type="curve"/>
      <point x="264" y="344"/>
      <point x="239" y="337"/>
      <point x="222" y="337" type="curve" smooth="yes"/>
      <point x="192" y="337"/>
      <point x="173" y="353"/>
      <point x="173" y="375" type="curve" smooth="yes"/>
      <point x="173" y="394"/>
      <point x="191" y="407"/>
      <point x="220" y="407" type="curve" smooth="yes"/>
      <point x="240" y="407"/>
      <point x="259" y="402"/>
      <point x="277" y="394" type="curve"/>
      <point x="340" y="394"/>
      <point x="387" y="451"/>
      <point x="387" y="546" type="curve"/>
      <point x="387" y="634"/>
      <point x="342" y="679"/>
      <point x="274" y="679" type="curve"/>
      <point x="211" y="679"/>
      <point x="174" y="647"/>
      <point x="174" y="599" type="curve" smooth="yes"/>
      <point x="174" y="561"/>
      <point x="202" y="534"/>
      <point x="241" y="534" type="curve"/>
      <point x="235" y="507"/>
      <point x="208" y="490"/>
      <point x="169" y="490" type="curve" smooth="yes"/>
      <point x="113" y="490"/>
      <point x="72" y="532"/>
      <point x="72" y="589" type="curve" smooth="yes"/>
      <point x="72" y="667"/>
      <point x="160" y="724"/>
      <point x="281" y="724" type="curve"/>
      <point x="423" y="724"/>
      <point x="512" y="653"/>
      <point x="512" y="553" type="curve"/>
      <point x="512" y="462"/>
      <point x="448" y="410"/>
      <point x="371" y="387" type="curve"/>
      <point x="371" y="381" type="line"/>
      <point x="473" y="354"/>
      <point x="536" y="286"/>
      <point x="536" y="192" type="curve" smooth="yes"/>
      <point x="536" y="76"/>
      <point x="429" y="-9"/>
      <point x="269" y="-9" type="curve"/>
      <point x="140" y="-9"/>
      <point x="42" y="59"/>
      <point x="42" y="172" type="curve"/>
      <point x="42" y="232"/>
      <point x="88" y="277"/>
      <point x="153" y="277" type="curve" smooth="yes"/>
      <point x="192" y="277"/>
      <point x="223" y="257"/>
      <point x="230" y="228" type="curve"/>
      <point x="188" y="228"/>
      <point x="151" y="195"/>
      <point x="151" y="140" type="curve"/>
      <point x="151" y="72"/>
      <point x="204" y="39"/>
      <point x="267" y="39" type="curve"/>
      <point x="350" y="39"/>
      <point x="405" y="99"/>
    </contour>
  </outline>
</glyph>
<glyph name="five" format="1">
  <advance width="553"/>
  <unicode hex="0035"/>
  <outline>
    <contour>
      <point x="229" y="598" type="line"/>
      <point x="336" y="598" type="line"/>
      <point x="433" y="598"/>
      <point x="478" y="636"/>
      <point x="494" y="724" type="curve"/>
      <point x="489" y="724" type="line"/>
      <point x="464" y="713"/>
      <point x="416" y="707"/>
      <point x="354" y="707" type="curve" smooth="yes"/>
      <point x="302" y="707"/>
      <point x="244" y="712"/>
      <point x="213" y="724" type="curve"/>
      <point x="112" y="341" type="line"/>
      <point x="111" y="337"/>
      <point x="110" y="334"/>
      <point x="110" y="331" type="curve" smooth="yes"/>
      <point x="110" y="319"/>
      <point x="120" y="310"/>
      <point x="134" y="310" type="curve" smooth="yes"/>
      <point x="147" y="310"/>
      <point x="154" y="315"/>
      <point x="163" y="341" type="curve" smooth="yes"/>
      <point x="184" y="400"/>
      <point x="217" y="427"/>
      <point x="269" y="427" type="curve" smooth="yes"/>
      <point x="336" y="427"/>
      <point x="369" y="379"/>
      <point x="369" y="276" type="curve" smooth="yes"/>
      <point x="369" y="131"/>
      <point x="305" y="36"/>
      <point x="209" y="36" type="curve" smooth="yes"/>
      <point x="90" y="36"/>
      <point x="152" y="180"/>
      <point x="67" y="180" type="curve" smooth="yes"/>
      <point x="36" y="180"/>
      <point x="15" y="159"/>
      <point x="15" y="123" type="curve" smooth="yes"/>
      <point x="15" y="44"/>
      <point x="96" y="-9"/>
      <point x="206" y="-9" type="curve" smooth="yes"/>
      <point x="367" y="-9"/>
      <point x="498" y="101"/>
      <point x="498" y="259" type="curve" smooth="yes"/>
      <point x="498" y="385"/>
      <point x="421" y="473"/>
      <point x="296" y="473" type="curve" smooth="yes"/>
      <point x="250" y="473"/>
      <point x="209" y="460"/>
      <point x="189" y="442" type="curve"/>
      <point x="187" y="445" type="line"/>
    </contour>
  </outline>
</glyph>
<glyph name="seven" format="1">
  <advance width="487"/>
  <unicode hex="0037"/>
  <outline>
    <contour>
      <point x="237" y="324" type="line"/>
      <point x="122" y="107"/>
      <point x="103" y="70"/>
      <point x="103" y="38" type="curve" smooth="yes"/>
      <point x="103" y="9"/>
      <point x="125" y="-9"/>
      <point x="154" y="-9" type="curve" smooth="yes"/>
      <point x="194" y="-9"/>
      <point x="221" y="17"/>
      <point x="255" y="109" type="curve" smooth="yes"/>
      <point x="343" y="355"/>
      <point x="363" y="404"/>
      <point x="495" y="687" type="curve"/>
      <point x="495" y="714" type="line"/>
      <point x="197" y="714" type="line"/>
      <point x="141" y="714"/>
      <point x="125" y="720"/>
      <point x="125" y="742" type="curve" smooth="yes"/>
      <point x="125" y="750"/>
      <point x="127" y="762"/>
      <point x="130" y="770" type="curve"/>
      <point x="91" y="770" type="line"/>
      <point x="24" y="508" type="line"/>
      <point x="60" y="508" type="line"/>
      <point x="75" y="544" type="line"/>
      <point x="99" y="604"/>
      <point x="114" y="612"/>
      <point x="213" y="612" type="curve" smooth="yes"/>
      <point x="392" y="612" type="line"/>
    </contour>
  </outline>
</glyph>
<glyph name="greater" format="1">
  <advance width="544"/>
  <unicode hex="003E"/>
  <outline>
    <contour>
      <point x="75" y="123" type="line"/>
      <point x="75" y="67" type="line"/>
      <point x="509" y="282" type="line"/>
      <point x="509" y="342" type="line"/>
      <point x="75" y="557" type="line"/>
      <point x="75" y="499" type="line"/>
      <point x="461" y="312" type="line"/>
    </contour>
  </outline>
</glyph>
<glyph name="B" format="1">
  <advance width="728"/>
  <unicode hex="0042"/>
  <outline>
    <contour>
      <point x="33" y="0" type="line"/>
      <point x="33" y="36" type="line"/>
      <point x="123" y="39"/>
      <point x="139" y="55"/>
      <point x="139" y="142" type="curve" smooth="yes"/>
      <point x="139" y="572" type="line"/>
      <point x="139" y="659"/>
      <point x="126" y="675"/>
      <point x="52" y="678" type="curve"/>
      <point x="52" y="714" type="line"/>
      <point x="349" y="714" type="line"/>
      <point x="524" y="714"/>
      <point x="623" y="659"/>
      <point x="623" y="543" type="curve" smooth="yes"/>
      <point x="623" y="461"/>
      <point x="569" y="405"/>
      <point x="458" y="382" type="curve"/>
      <point x="458" y="379" type="line"/>
      <point x="620" y="363"/>
      <point x="686" y="289"/>
      <point x="686" y="190" type="curve" smooth="yes"/>
      <point x="686" y="72"/>
      <point x="587" y="0"/>
      <point x="380" y="0" type="curve" smooth="yes"/>
    </contour>
    <contour>
      <point x="389" y="48" type="curve"/>
      <point x="496" y="48"/>
      <point x="556" y="93"/>
      <point x="556" y="190" type="curve"/>
      <point x="556" y="301"/>
      <point x="496" y="351"/>
      <point x="299" y="351" type="curve" smooth="yes"/>
      <point x="258" y="351" type="line"/>
      <point x="258" y="158" type="line"/>
      <point x="258" y="78"/>
      <point x="294" y="48"/>
    </contour>
    <contour>
      <point x="309" y="401" type="line"/>
      <point x="441" y="401"/>
      <point x="493" y="441"/>
      <point x="493" y="531" type="curve" smooth="yes"/>
      <point x="493" y="626"/>
      <point x="448" y="665"/>
      <point x="341" y="665" type="curve" smooth="yes"/>
      <point x="274" y="665" type="line"/>
      <point x="264" y="665"/>
      <point x="258" y="658"/>
      <point x="258" y="649" type="curve" smooth="yes"/>
      <point x="258" y="401" type="line"/>
    </contour>
  </outline>
</glyph>
<glyph name="C" format="1">
  <advance width="748"/>
  <unicode hex="0043"/>
  <outline>
    <contour>
      <point x="420" y="670" type="curve"/>
      <point x="518" y="670"/>
      <point x="613" y="609"/>
      <point x="625" y="491" type="curve"/>
      <point x="666" y="491" type="line"/>
      <point x="681" y="714" type="line"/>
      <point x="642" y="714" type="line"/>
      <point x="624" y="657" type="line"/>
      <point x="548" y="704"/>
      <point x="487" y="724"/>
      <point x="412" y="724" type="curve"/>
      <point x="199" y="724"/>
      <point x="50" y="570"/>
      <point x="50" y="350" type="curve"/>
      <point x="50" y="129"/>
      <point x="189" y="-9"/>
      <point x="401" y="-9" type="curve" smooth="yes"/>
      <point x="495" y="-9"/>
      <point x="575" y="17"/>
      <point x="642" y="73" type="curve"/>
      <point x="660" y="0" type="line"/>
      <point x="697" y="0" type="line"/>
      <point x="697" y="241" type="line"/>
      <point x="658" y="241" type="line"/>
      <point x="624" y="112"/>
      <point x="543" y="46"/>
      <point x="424" y="46" type="curve" smooth="yes"/>
      <point x="272" y="46"/>
      <point x="183" y="155"/>
      <point x="183" y="355" type="curve"/>
      <point x="183" y="549"/>
      <point x="275" y="670"/>
    </contour>
    <contour>
      <point x="415" y="770" type="move" name="topcap"/>
    </contour>
    <contour>
      <point x="399" y="0" type="move" name="bottom"/>
    </contour>
  </outline>
</glyph>
<glyph name="D" format="1">
  <advance width="829"/>
  <unicode hex="0044"/>
  <outline>
    <contour>
      <point x="34" y="0" type="line"/>
      <point x="34" y="36" type="line"/>
      <point x="123" y="39"/>
      <point x="139" y="54"/>
      <point x="139" y="142" type="curve" smooth="yes"/>
      <point x="139" y="572" type="line"/>
      <point x="139" y="659"/>
      <point x="127" y="675"/>
      <point x="51" y="678" type="curve"/>
      <point x="51" y="714" type="line"/>
      <point x="392" y="714" type="line"/>
      <point x="612" y="714"/>
      <point x="779" y="564"/>
      <point x="779" y="345" type="curve" smooth="yes"/>
      <point x="779" y="137"/>
      <point x="624" y="0"/>
      <point x="411" y="0" type="curve"/>
    </contour>
    <contour>
      <point x="274" y="664" type="line"/>
      <point x="264" y="664"/>
      <point x="258" y="657"/>
      <point x="258" y="648" type="curve" smooth="yes"/>
      <point x="258" y="156" type="line"/>
      <point x="258" y="85"/>
      <point x="301" y="51"/>
      <point x="389" y="51" type="curve"/>
      <point x="555" y="51"/>
      <point x="646" y="147"/>
      <point x="646" y="344" type="curve" smooth="yes"/>
      <point x="646" y="550"/>
      <point x="548" y="664"/>
      <point x="380" y="664" type="curve"/>
    </contour>
    <contour>
      <point x="424" y="770" type="move" name="topcap"/>
    </contour>
    <contour>
      <point x="424" y="0" type="move" name="bottom"/>
    </contour>
  </outline>
</glyph>
<glyph name="E" format="1">
  <advance width="694"/>
  <unicode hex="0045"/>
  <outline>
    <contour>
      <point x="257" y="646" type="line"/>
      <point x="257" y="664"/>
      <point x="262" y="670"/>
      <point x="282" y="670" type="curve" smooth="yes"/>
      <point x="394" y="670" type="line"/>
      <point x="523" y="670"/>
      <point x="568" y="643"/>
      <point x="582" y="543" type="curve"/>
      <point x="619" y="543" type="line"/>
      <point x="611" y="714" type="line"/>
      <point x="47" y="714" type="line"/>
      <point x="47" y="678" type="line"/>
      <point x="125" y="675"/>
      <point x="138" y="659"/>
      <point x="138" y="572" type="curve" smooth="yes"/>
      <point x="138" y="142" type="line"/>
      <point x="138" y="55"/>
      <point x="123" y="39"/>
      <point x="37" y="36" type="curve"/>
      <point x="37" y="0" type="line"/>
      <point x="642" y="0" type="line"/>
      <point x="657" y="196" type="line"/>
      <point x="620" y="196" type="line"/>
      <point x="596" y="79"/>
      <point x="549" y="45"/>
      <point x="414" y="45" type="curve" smooth="yes"/>
      <point x="295" y="45"/>
      <point x="257" y="70"/>
      <point x="257" y="151" type="curve" smooth="yes"/>
      <point x="257" y="352" type="line"/>
      <point x="404" y="352"/>
      <point x="434" y="328"/>
      <point x="441" y="241" type="curve"/>
      <point x="474" y="241" type="line"/>
      <point x="474" y="503" type="line"/>
      <point x="441" y="503" type="line"/>
      <point x="436" y="417"/>
      <point x="403" y="394"/>
      <point x="257" y="394" type="curve"/>
    </contour>
    <contour>
      <point x="367" y="770" type="move" name="topcap"/>
    </contour>
    <contour>
      <point x="367" y="0" type="move" name="bottom"/>
    </contour>
  </outline>
</glyph>
<glyph name="F" format="1">
  <advance width="634"/>
  <unicode hex="0046"/>
  <outline>
    <contour>
      <point x="257" y="148" type="line"/>
      <point x="257" y="54"/>
      <point x="274" y="39"/>
      <point x="389" y="36" type="curve"/>
      <point x="389" y="0" type="line"/>
      <point x="37" y="0" type="line"/>
      <point x="37" y="36" type="line"/>
      <point x="123" y="39"/>
      <point x="138" y="55"/>
      <point x="138" y="142" type="curve" smooth="yes"/>
      <point x="138" y="572" type="line"/>
      <point x="138" y="659"/>
      <point x="125" y="675"/>
      <point x="47" y="678" type="curve"/>
      <point x="47" y="714" type="line"/>
      <point x="602" y="714" type="line"/>
      <point x="613" y="529" type="line"/>
      <point x="578" y="529" type="line"/>
      <point x="563" y="634"/>
      <point x="523" y="666"/>
      <point x="396" y="666" type="curve" smooth="yes"/>
      <point x="273" y="666" type="line"/>
      <point x="263" y="666"/>
      <point x="257" y="660"/>
      <point x="257" y="650" type="curve" smooth="yes"/>
      <point x="257" y="376" type="line"/>
      <point x="391" y="376"/>
      <point x="432" y="397"/>
      <point x="441" y="494" type="curve"/>
      <point x="474" y="494" type="line"/>
      <point x="474" y="214" type="line"/>
      <point x="441" y="214" type="line"/>
      <point x="427" y="313"/>
      <point x="393" y="332"/>
      <point x="257" y="333" type="curve"/>
    </contour>
  </outline>
</glyph>
<glyph name="G" format="1">
  <advance width="805"/>
  <unicode hex="0047"/>
  <outline>
    <contour>
      <point x="424" y="670" type="curve"/>
      <point x="521" y="670"/>
      <point x="612" y="609"/>
      <point x="623" y="491" type="curve"/>
      <point x="665" y="491" type="line"/>
      <point x="680" y="714" type="line"/>
      <point x="641" y="714" type="line"/>
      <point x="623" y="657" type="line"/>
      <point x="547" y="704"/>
      <point x="488" y="724"/>
      <point x="410" y="724" type="curve"/>
      <point x="198" y="724"/>
      <point x="50" y="574"/>
      <point x="50" y="354" type="curve"/>
      <point x="50" y="132"/>
      <point x="188" y="-9"/>
      <point x="399" y="-9" type="curve"/>
      <point x="560" y="-9"/>
      <point x="615" y="77"/>
      <point x="707" y="77" type="curve"/>
      <point x="707" y="190" type="line"/>
      <point x="707" y="256"/>
      <point x="725" y="277"/>
      <point x="785" y="277" type="curve"/>
      <point x="785" y="313" type="line"/>
      <point x="503" y="313" type="line"/>
      <point x="503" y="277" type="line"/>
      <point x="570" y="274"/>
      <point x="598" y="252"/>
      <point x="598" y="192" type="curve"/>
      <point x="598" y="107"/>
      <point x="531" y="46"/>
      <point x="418" y="46" type="curve"/>
      <point x="270" y="46"/>
      <point x="182" y="159"/>
      <point x="182" y="360" type="curve"/>
      <point x="182" y="554"/>
      <point x="276" y="670"/>
    </contour>
    <contour>
      <point x="414" y="770" type="move" name="topcap"/>
    </contour>
    <contour>
      <point x="399" y="0" type="move" name="bottom"/>
    </contour>
  </outline>
</glyph>
<glyph name="H" format="1">
  <advance width="876"/>
  <unicode hex="0048"/>
  <outline>
    <contour>
      <point x="738" y="148" type="line"/>
      <point x="738" y="54"/>
      <point x="753" y="39"/>
      <point x="838" y="36" type="curve"/>
      <point x="838" y="0" type="line"/>
      <point x="515" y="0" type="line"/>
      <point x="515" y="36" type="line"/>
      <point x="603" y="39"/>
      <point x="618" y="55"/>
      <point x="618" y="142" type="curve" smooth="yes"/>
      <point x="618" y="340" type="line"/>
      <point x="257" y="340" type="line"/>
      <point x="257" y="148" type="line"/>
      <point x="257" y="54"/>
      <point x="271" y="39"/>
      <point x="360" y="36" type="curve"/>
      <point x="360" y="0" type="line"/>
      <point x="37" y="0" type="line"/>
      <point x="37" y="36" type="line"/>
      <point x="123" y="39"/>
      <point x="138" y="55"/>
      <point x="138" y="142" type="curve" smooth="yes"/>
      <point x="138" y="572" type="line"/>
      <point x="138" y="659"/>
      <point x="125" y="675"/>
      <point x="47" y="678" type="curve"/>
      <point x="47" y="714" type="line"/>
      <point x="351" y="714" type="line"/>
      <point x="351" y="678" type="line"/>
      <point x="270" y="676"/>
      <point x="257" y="660"/>
      <point x="257" y="566" type="curve" smooth="yes"/>
      <point x="257" y="391" type="line"/>
      <point x="618" y="391" type="line"/>
      <point x="618" y="572" type="line"/>
      <point x="618" y="659"/>
      <point x="605" y="675"/>
      <point x="524" y="678" type="curve"/>
      <point x="524" y="714" type="line"/>
      <point x="828" y="714" type="line"/>
      <point x="828" y="678" type="line"/>
      <point x="751" y="676"/>
      <point x="738" y="660"/>
      <point x="738" y="566" type="curve" smooth="yes"/>
    </contour>
    <contour>
      <point x="449" y="770" type="move" name="topcap"/>
    </contour>
    <contour>
      <point x="449" y="0" type="move" name="bottom"/>
    </contour>
  </outline>
</glyph>
<glyph name="I" format="1">
  <advance width="396"/>
  <unicode hex="0049"/>
  <outline>
    <contour>
      <point x="258" y="541" type="line"/>
      <point x="258" y="650"/>
      <point x="270" y="675"/>
      <point x="348" y="678" type="curve"/>
      <point x="348" y="714" type="line"/>
      <point x="47" y="714" type="line"/>
      <point x="47" y="678" type="line"/>
      <point x="125" y="675"/>
      <point x="138" y="649"/>
      <point x="138" y="545" type="curve" smooth="yes"/>
      <point x="138" y="170" type="line"/>
      <point x="138" y="55"/>
      <point x="123" y="39"/>
      <point x="38" y="36" type="curve"/>
      <point x="38" y="0" type="line"/>
      <point x="357" y="0" type="line"/>
      <point x="357" y="36" type="line"/>
      <point x="271" y="39"/>
      <point x="258" y="54"/>
      <point x="258" y="173" type="curve" smooth="yes"/>
    </contour>
    <contour>
      <point x="199" y="770" type="move" name="topcap"/>
    </contour>
    <contour>
      <point x="199" y="0" type="move" name="bottom"/>
    </contour>
  </outline>
</glyph>
<glyph name="M" format="1">
  <advance width="1032"/>
  <unicode hex="004D"/>
  <outline>
    <contour>
      <point x="523" y="178" type="line"/>
      <point x="745" y="714" type="line"/>
      <point x="987" y="714" type="line"/>
      <point x="987" y="678" type="line"/>
      <point x="905" y="676"/>
      <point x="893" y="650"/>
      <point x="893" y="538" type="curve" smooth="yes"/>
      <point x="893" y="176" type="line"/>
      <point x="893" y="54"/>
      <point x="907" y="39"/>
      <point x="996" y="36" type="curve"/>
      <point x="996" y="0" type="line"/>
      <point x="669" y="0" type="line"/>
      <point x="669" y="36" type="line"/>
      <point x="758" y="39"/>
      <point x="773" y="55"/>
      <point x="773" y="170" type="curve" smooth="yes"/>
      <point x="773" y="602" type="line"/>
      <point x="766" y="602" type="line"/>
      <point x="512" y="-9" type="line"/>
      <point x="469" y="-9" type="line"/>
      <point x="207" y="602" type="line"/>
      <point x="203" y="602" type="line"/>
      <point x="203" y="176" type="line"/>
      <point x="203" y="54"/>
      <point x="217" y="39"/>
      <point x="306" y="36" type="curve"/>
      <point x="306" y="0" type="line"/>
      <point x="35" y="0" type="line"/>
      <point x="35" y="36" type="line"/>
      <point x="125" y="39"/>
      <point x="140" y="55"/>
      <point x="140" y="170" type="curve" smooth="yes"/>
      <point x="140" y="545" type="line"/>
      <point x="140" y="649"/>
      <point x="127" y="676"/>
      <point x="45" y="678" type="curve"/>
      <point x="45" y="714" type="line"/>
      <point x="295" y="714" type="line"/>
      <point x="519" y="178" type="line"/>
    </contour>
  </outline>
</glyph>
<glyph name="N" format="1">
  <advance width="846"/>
  <unicode hex="004E"/>
  <outline>
    <contour>
      <point x="631" y="-9" type="line"/>
      <point x="206" y="584" type="line"/>
      <point x="203" y="584" type="line"/>
      <point x="203" y="176" type="line"/>
      <point x="203" y="54"/>
      <point x="216" y="39"/>
      <point x="296" y="36" type="curve"/>
      <point x="296" y="0" type="line"/>
      <point x="35" y="0" type="line"/>
      <point x="35" y="36" type="line"/>
      <point x="124" y="39"/>
      <point x="140" y="55"/>
      <point x="140" y="170" type="curve" smooth="yes"/>
      <point x="140" y="545" type="line"/>
      <point x="140" y="649"/>
      <point x="126" y="675"/>
      <point x="45" y="678" type="curve"/>
      <point x="45" y="714" type="line"/>
      <point x="267" y="714" type="line"/>
      <point x="647" y="178" type="line"/>
      <point x="651" y="178" type="line"/>
      <point x="651" y="538" type="line"/>
      <point x="651" y="660"/>
      <point x="638" y="676"/>
      <point x="557" y="678" type="curve"/>
      <point x="557" y="714" type="line"/>
      <point x="819" y="714" type="line"/>
      <point x="819" y="678" type="line"/>
      <point x="730" y="676"/>
      <point x="715" y="660"/>
      <point x="715" y="545" type="curve" smooth="yes"/>
      <point x="715" y="-9" type="line"/>
    </contour>
    <contour>
      <point x="445" y="770" type="move" name="topcap"/>
    </contour>
    <contour>
      <point x="440" y="0" type="move" name="bottom"/>
    </contour>
  </outline>
</glyph>
<glyph name="O" format="1">
  <advance width="851"/>
  <unicode hex="004F"/>
  <outline>
    <contour>
      <point x="426" y="724" type="curve" smooth="yes"/>
      <point x="206" y="724"/>
      <point x="48" y="562"/>
      <point x="48" y="352" type="curve" smooth="yes"/>
      <point x="48" y="150"/>
      <point x="208" y="-9"/>
      <point x="426" y="-9" type="curve" smooth="yes"/>
      <point x="644" y="-9"/>
      <point x="804" y="150"/>
      <point x="804" y="352" type="curve" smooth="yes"/>
      <point x="804" y="562"/>
      <point x="645" y="724"/>
    </contour>
    <contour>
      <point x="426" y="46" type="curve" smooth="yes"/>
      <point x="271" y="46"/>
      <point x="182" y="163"/>
      <point x="182" y="349" type="curve" smooth="yes"/>
      <point x="182" y="545"/>
      <point x="271" y="668"/>
      <point x="426" y="668" type="curve" smooth="yes"/>
      <point x="580" y="668"/>
      <point x="670" y="545"/>
      <point x="670" y="349" type="curve" smooth="yes"/>
      <point x="670" y="163"/>
      <point x="579" y="46"/>
    </contour>
    <contour>
      <point x="426" y="770" type="move" name="topcap"/>
    </contour>
    <contour>
      <point x="426" y="0" type="move" name="bottom"/>
    </contour>
  </outline>
</glyph>
<glyph name="Q" format="1">
  <advance width="863"/>
  <unicode hex="0051"/>
  <outline>
    <contour>
      <point x="703" y="-246" type="curve"/>
      <point x="800" y="-246"/>
      <point x="851" y="-185"/>
      <point x="851" y="-106" type="curve" smooth="yes"/>
      <point x="851" y="-95"/>
      <point x="849" y="-80"/>
      <point x="847" y="-67" type="curve"/>
      <point x="819" y="-67" type="line"/>
      <point x="803" y="-127"/>
      <point x="773" y="-145"/>
      <point x="719" y="-145" type="curve" smooth="yes"/>
      <point x="616" y="-145"/>
      <point x="516" y="-78"/>
      <point x="406" y="-81" type="curve"/>
      <point x="390" y="-80" type="line"/>
      <point x="404" y="-69"/>
      <point x="422" y="-60"/>
      <point x="440" y="-52" type="curve" smooth="yes"/>
      <point x="493" y="-33"/>
      <point x="545" y="-9"/>
      <point x="598" y="28" type="curve" smooth="yes"/>
      <point x="742" y="98"/>
      <point x="806" y="199"/>
      <point x="806" y="346" type="curve"/>
      <point x="806" y="561"/>
      <point x="646" y="724"/>
      <point x="426" y="724" type="curve" smooth="yes"/>
      <point x="206" y="724"/>
      <point x="49" y="562"/>
      <point x="49" y="346" type="curve"/>
      <point x="49" y="144"/>
      <point x="190" y="-13"/>
      <point x="389" y="-28" type="curve"/>
      <point x="270" y="-93" type="line"/>
      <point x="215" y="-123"/>
      <point x="206" y="-134"/>
      <point x="206" y="-153" type="curve" smooth="yes"/>
      <point x="206" y="-168"/>
      <point x="217" y="-177"/>
      <point x="236" y="-177" type="curve" smooth="yes"/>
      <point x="280" y="-177"/>
      <point x="295" y="-123"/>
      <point x="360" y="-123" type="curve" smooth="yes"/>
      <point x="464" y="-123"/>
      <point x="547" y="-246"/>
    </contour>
    <contour>
      <point x="426" y="23" type="curve" smooth="yes"/>
      <point x="272" y="23"/>
      <point x="183" y="143"/>
      <point x="183" y="344" type="curve"/>
      <point x="183" y="546"/>
      <point x="271" y="668"/>
      <point x="426" y="668" type="curve" smooth="yes"/>
      <point x="581" y="668"/>
      <point x="672" y="545"/>
      <point x="672" y="344" type="curve"/>
      <point x="672" y="145"/>
      <point x="580" y="23"/>
    </contour>
  </outline>
</glyph>
<glyph name="S" format="1">
  <advance width="614"/>
  <unicode hex="0053"/>
  <outline>
    <contour>
      <point x="68" y="6" type="line"/>
      <point x="89" y="6" type="line"/>
      <point x="112" y="56" type="line"/>
      <point x="162" y="19"/>
      <point x="226" y="-9"/>
      <point x="311" y="-9" type="curve"/>
      <point x="453" y="-9"/>
      <point x="568" y="71"/>
      <point x="568" y="199" type="curve" smooth="yes"/>
      <point x="568" y="293"/>
      <point x="508" y="355"/>
      <point x="399" y="402" type="curve" smooth="yes"/>
      <point x="312" y="441" type="line"/>
      <point x="215" y="483"/>
      <point x="171" y="513"/>
      <point x="171" y="576" type="curve" smooth="yes"/>
      <point x="171" y="636"/>
      <point x="225" y="672"/>
      <point x="294" y="672" type="curve"/>
      <point x="380" y="672"/>
      <point x="442" y="620"/>
      <point x="471" y="519" type="curve"/>
      <point x="506" y="519" type="line"/>
      <point x="496" y="710" type="line"/>
      <point x="475" y="710" type="line"/>
      <point x="454" y="667" type="line"/>
      <point x="403" y="706"/>
      <point x="351" y="724"/>
      <point x="290" y="724" type="curve"/>
      <point x="160" y="724"/>
      <point x="68" y="641"/>
      <point x="68" y="529" type="curve"/>
      <point x="68" y="439"/>
      <point x="119" y="384"/>
      <point x="223" y="337" type="curve" smooth="yes"/>
      <point x="337" y="287" type="line"/>
      <point x="428" y="246"/>
      <point x="459" y="212"/>
      <point x="459" y="157" type="curve"/>
      <point x="459" y="81"/>
      <point x="404" y="43"/>
      <point x="305" y="43" type="curve" smooth="yes"/>
      <point x="189" y="43"/>
      <point x="106" y="112"/>
      <point x="89" y="226" type="curve"/>
      <point x="54" y="226" type="line"/>
    </contour>
    <contour>
      <point x="297" y="770" type="move" name="topcap"/>
    </contour>
    <contour>
      <point x="310" y="-22" type="move" name="bottom"/>
    </contour>
  </outline>
</glyph>
<glyph name="T" format="1">
  <advance width="706"/>
  <unicode hex="0054"/>
  <outline>
    <contour>
      <point x="683" y="714" type="line"/>
      <point x="20" y="714" type="line"/>
      <point x="15" y="525" type="line"/>
      <point x="51" y="525" type="line"/>
      <point x="59" y="665"/>
      <point x="129" y="670"/>
      <point x="214" y="670" type="curve" smooth="yes"/>
      <point x="277" y="670"/>
      <point x="293" y="663"/>
      <point x="293" y="637" type="curve" smooth="yes"/>
      <point x="293" y="150" type="line"/>
      <point x="293" y="71"/>
      <point x="276" y="39"/>
      <point x="169" y="36" type="curve"/>
      <point x="169" y="0" type="line"/>
      <point x="535" y="0" type="line"/>
      <point x="535" y="36" type="line"/>
      <point x="428" y="39"/>
      <point x="413" y="71"/>
      <point x="413" y="150" type="curve" smooth="yes"/>
      <point x="413" y="637" type="line"/>
      <point x="413" y="663"/>
      <point x="429" y="670"/>
      <point x="505" y="670" type="curve" smooth="yes"/>
      <point x="600" y="670"/>
      <point x="642" y="639"/>
      <point x="654" y="525" type="curve"/>
      <point x="693" y="525" type="line"/>
    </contour>
    <contour>
      <point x="352" y="770" type="move" name="topcap"/>
    </contour>
    <contour>
      <point x="352" y="0" type="move" name="bottom"/>
    </contour>
  </outline>
</glyph>
<glyph name="W" format="1">
  <advance width="1127"/>
  <unicode hex="0057"/>
  <outline>
    <contour>
      <point x="684" y="555" type="line"/>
      <point x="672" y="592"/>
      <point x="666" y="617"/>
      <point x="666" y="635" type="curve" smooth="yes"/>
      <point x="666" y="668"/>
      <point x="691" y="677"/>
      <point x="753" y="677" type="curve"/>
      <point x="753" y="714" type="line"/>
      <point x="443" y="714" type="line"/>
      <point x="443" y="677" type="line"/>
      <point x="488" y="674"/>
      <point x="512" y="659"/>
      <point x="541" y="588" type="curve"/>
      <point x="385" y="169" type="line"/>
      <point x="246" y="564" type="line"/>
      <point x="232" y="603"/>
      <point x="227" y="620"/>
      <point x="227" y="638" type="curve" smooth="yes"/>
      <point x="227" y="667"/>
      <point x="253" y="677"/>
      <point x="315" y="677" type="curve"/>
      <point x="315" y="714" type="line"/>
      <point x="-17" y="714" type="line"/>
      <point x="-17" y="677" type="line"/>
      <point x="56" y="677"/>
      <point x="80" y="650"/>
      <point x="126" y="527" type="curve" smooth="yes"/>
      <point x="329" y="-9" type="line"/>
      <point x="382" y="-9" type="line"/>
      <point x="573" y="501" type="line"/>
      <point x="750" y="-9" type="line"/>
      <point x="806" y="-9" type="line"/>
      <point x="1034" y="603" type="line"/>
      <point x="1054" y="657"/>
      <point x="1086" y="678"/>
      <point x="1137" y="678" type="curve"/>
      <point x="1137" y="714" type="line"/>
      <point x="895" y="714" type="line"/>
      <point x="895" y="678" type="line"/>
      <point x="948" y="678"/>
      <point x="970" y="669"/>
      <point x="970" y="634" type="curve" smooth="yes"/>
      <point x="970" y="613"/>
      <point x="964" y="586"/>
      <point x="947" y="540" type="curve" smooth="yes"/>
      <point x="810" y="167" type="line"/>
    </contour>
    <contour>
      <point x="585" y="770" type="move" name="topcap"/>
    </contour>
  </outline>
</glyph>
<glyph name="Y" format="1">
  <advance width="698"/>
  <unicode hex="0059"/>
  <outline>
    <contour>
      <point x="97" y="598" type="line"/>
      <point x="59" y="663"/>
      <point x="42" y="678"/>
      <point x="-9" y="678" type="curve"/>
      <point x="-9" y="714" type="line"/>
      <point x="299" y="714" type="line"/>
      <point x="299" y="678" type="line"/>
      <point x="242" y="678"/>
      <point x="221" y="669"/>
      <point x="221" y="648" type="curve" smooth="yes"/>
      <point x="221" y="636"/>
      <point x="229" y="618"/>
      <point x="244" y="591" type="curve" smooth="yes"/>
      <point x="380" y="339" type="line"/>
      <point x="384" y="339" type="line"/>
      <point x="496" y="526" type="line"/>
      <point x="537" y="594"/>
      <point x="551" y="627"/>
      <point x="551" y="648" type="curve" smooth="yes"/>
      <point x="551" y="671"/>
      <point x="536" y="678"/>
      <point x="483" y="678" type="curve"/>
      <point x="483" y="714" type="line"/>
      <point x="709" y="714" type="line"/>
      <point x="709" y="678" type="line"/>
      <point x="656" y="678"/>
      <point x="631" y="652"/>
      <point x="550" y="516" type="curve" smooth="yes"/>
      <point x="410" y="279" type="line"/>
      <point x="410" y="176" type="line"/>
      <point x="410" y="54"/>
      <point x="425" y="36"/>
      <point x="510" y="36" type="curve"/>
      <point x="510" y="0" type="line"/>
      <point x="191" y="0" type="line"/>
      <point x="191" y="36" type="line"/>
      <point x="274" y="36"/>
      <point x="291" y="55"/>
      <point x="291" y="170" type="curve" smooth="yes"/>
      <point x="291" y="270" type="line"/>
    </contour>
    <contour>
      <point x="378" y="770" type="move" name="topcap"/>
    </contour>
  </outline>
</glyph>
<glyph name="Z" format="1">
  <advance width="719"/>
  <unicode hex="005A"/>
  <outline>
    <contour>
      <point x="679" y="226" type="line"/>
      <point x="638" y="226" type="line"/>
      <point x="615" y="81"/>
      <point x="588" y="47"/>
      <point x="458" y="47" type="curve" smooth="yes"/>
      <point x="180" y="47" type="line"/>
      <point x="654" y="679" type="line"/>
      <point x="654" y="714" type="line"/>
      <point x="79" y="714" type="line"/>
      <point x="65" y="535" type="line"/>
      <point x="100" y="535" type="line"/>
      <point x="117" y="631"/>
      <point x="158" y="671"/>
      <point x="247" y="671" type="curve" smooth="yes"/>
      <point x="492" y="671" type="line"/>
      <point x="15" y="36" type="line"/>
      <point x="15" y="0" type="line"/>
      <point x="667" y="0" type="line"/>
    </contour>
    <contour>
      <point x="381" y="770" type="move" name="topcap"/>
    </contour>
    <contour>
      <point x="378" y="0" type="move" name="bottom"/>
    </contour>
  </outline>
</glyph>
<glyph name="bracketleft" format="1">
  <advance width="357"/>
  <unicode hex="005B"/>
  <outline>
    <contour>
      <point x="339" y="715" type="line"/>
      <point x="339" y="760" type="line"/>
      <point x="95" y="760" type="line"/>
      <point x="95" y="-139" type="line"/>
      <point x="339" y="-139" type="line"/>
      <point x="339" y="-93" type="line"/>
      <point x="196" y="-93" type="line"/>
      <point x="196" y="715" type="line"/>
    </contour>
  </outline>
</glyph>
<glyph name="backslash" format="1">
  <advance width="434"/>
  <unicode hex="005C"/>
  <outline>
    <contour>
      <point x="350" y="0" type="line"/>
      <point x="409" y="0" type="line"/>
      <point x="74" y="714" type="line"/>
      <point x="24" y="714" type="line"/>
    </contour>
  </outline>
</glyph>
<glyph name="bracketright" format="1">
  <advance width="357"/>
  <unicode hex="005D"/>
  <outline>
    <contour>
      <point x="160" y="715" type="line"/>
      <point x="160" y="-93" type="line"/>
      <point x="17" y="-93" type="line"/>
      <point x="17" y="-139" type="line"/>
      <point x="262" y="-139" type="line"/>
      <point x="262" y="760" type="line"/>
      <point x="17" y="760" type="line"/>
      <point x="17" y="715" type="line"/>
    </contour>
  </outline>
</glyph>
<glyph name="a" format="1">
  <advance width="523"/>
  <unicode hex="0061"/>
  <outline>
    <contour>
      <point x="321" y="190" type="line"/>
      <point x="321" y="115"/>
      <point x="273" y="61"/>
      <point x="214" y="61" type="curve" smooth="yes"/>
      <point x="172" y="61"/>
      <point x="147" y="87"/>
      <point x="147" y="130" type="curve"/>
      <point x="147" y="177"/>
      <point x="182" y="222"/>
      <point x="321" y="267" type="curve"/>
    </contour>
    <contour>
      <point x="188" y="260" type="line"/>
      <point x="75" y="221"/>
      <point x="36" y="174"/>
      <point x="36" y="109" type="curve" smooth="yes"/>
      <point x="36" y="36"/>
      <point x="89" y="-8"/>
      <point x="163" y="-8" type="curve"/>
      <point x="235" y="-8"/>
      <point x="288" y="28"/>
      <point x="322" y="90" type="curve"/>
      <point x="327" y="90" type="line"/>
      <point x="327" y="28"/>
      <point x="358" y="-9"/>
      <point x="414" y="-9" type="curve"/>
      <point x="461" y="-9"/>
      <point x="493" y="13"/>
      <point x="518" y="40" type="curve"/>
      <point x="504" y="65" type="line"/>
      <point x="494" y="57"/>
      <point x="480" y="49"/>
      <point x="465" y="49" type="curve"/>
      <point x="441" y="49"/>
      <point x="432" y="63"/>
      <point x="432" y="117" type="curve"/>
      <point x="432" y="335" type="line"/>
      <point x="432" y="442"/>
      <point x="382" y="501"/>
      <point x="251" y="501" type="curve" smooth="yes"/>
      <point x="140" y="501"/>
      <point x="59" y="465"/>
      <point x="59" y="402" type="curve" smooth="yes"/>
      <point x="59" y="368"/>
      <point x="81" y="349"/>
      <point x="111" y="349" type="curve"/>
      <point x="142" y="349"/>
      <point x="163" y="368"/>
      <point x="173" y="400" type="curve" smooth="yes"/>
      <point x="187" y="446"/>
      <point x="203" y="462"/>
      <point x="245" y="462" type="curve"/>
      <point x="298" y="462"/>
      <point x="321" y="427"/>
      <point x="321" y="353" type="curve" smooth="yes"/>
      <point x="321" y="308" type="line"/>
    </contour>
    <contour>
      <point x="236" y="604" type="move" name="top"/>
    </contour>
    <contour>
      <point x="408" y="0" type="move" name="bottom"/>
    </contour>
  </outline>
</glyph>
<glyph name="b" format="1">
  <advance width="592"/>
  <unicode hex="0062"/>
  <outline>
    <contour>
      <point x="191" y="770" type="line"/>
      <point x="-1" y="733" type="line"/>
      <point x="-1" y="706" type="line"/>
      <point x="73" y="696"/>
      <point x="82" y="679"/>
      <point x="82" y="598" type="curve"/>
      <point x="82" y="0" type="line"/>
      <point x="113" y="0" type="line"/>
      <point x="165" y="62" type="line"/>
      <point x="210" y="13"/>
      <point x="267" y="-10"/>
      <point x="336" y="-10" type="curve" smooth="yes"/>
      <point x="470" y="-10"/>
      <point x="552" y="95"/>
      <point x="552" y="246" type="curve" smooth="yes"/>
      <point x="552" y="393"/>
      <point x="474" y="501"/>
      <point x="343" y="501" type="curve" smooth="yes"/>
      <point x="279" y="501"/>
      <point x="230" y="476"/>
      <point x="194" y="427" type="curve"/>
      <point x="191" y="427" type="line"/>
    </contour>
    <contour>
      <point x="192" y="270" type="line"/>
      <point x="192" y="391"/>
      <point x="233" y="451"/>
      <point x="311" y="451" type="curve" smooth="yes"/>
      <point x="392" y="451"/>
      <point x="431" y="371"/>
      <point x="431" y="244" type="curve" smooth="yes"/>
      <point x="431" y="116"/>
      <point x="393" y="39"/>
      <point x="313" y="39" type="curve" smooth="yes"/>
      <point x="236" y="39"/>
      <point x="192" y="106"/>
      <point x="192" y="198" type="curve" smooth="yes"/>
    </contour>
  </outline>
</glyph>
<glyph name="c" format="1">
  <advance width="504"/>
  <unicode hex="0063"/>
  <outline>
    <contour>
      <point x="449" y="107" type="line"/>
      <point x="408" y="67"/>
      <point x="364" y="47"/>
      <point x="309" y="47" type="curve"/>
      <point x="208" y="47"/>
      <point x="161" y="121"/>
      <point x="161" y="257" type="curve" smooth="yes"/>
      <point x="161" y="382"/>
      <point x="199" y="453"/>
      <point x="275" y="453" type="curve" smooth="yes"/>
      <point x="310" y="453"/>
      <point x="332" y="445"/>
      <point x="358" y="399" type="curve" smooth="yes"/>
      <point x="376" y="364"/>
      <point x="398" y="354"/>
      <point x="424" y="354" type="curve"/>
      <point x="454" y="354"/>
      <point x="475" y="375"/>
      <point x="475" y="405" type="curve" smooth="yes"/>
      <point x="475" y="461"/>
      <point x="398" y="501"/>
      <point x="295" y="501" type="curve" smooth="yes"/>
      <point x="141" y="501"/>
      <point x="41" y="399"/>
      <point x="41" y="243" type="curve" smooth="yes"/>
      <point x="41" y="90"/>
      <point x="135" y="-7"/>
      <point x="283" y="-7" type="curve"/>
      <point x="361" y="-7"/>
      <point x="428" y="24"/>
      <point x="475" y="77" type="curve"/>
    </contour>
    <contour>
      <point x="287" y="604" type="move" name="top"/>
    </contour>
    <contour>
      <point x="263" y="0" type="move" name="bottom"/>
    </contour>
  </outline>
</glyph>
<glyph name="d" format="1">
  <advance width="617"/>
  <unicode hex="0064"/>
  <outline>
    <contour>
      <point x="433" y="-9" type="line"/>
      <point x="594" y="1" type="line"/>
      <point x="594" y="35" type="line"/>
      <point x="539" y="35"/>
      <point x="529" y="41"/>
      <point x="522" y="73" type="curve" smooth="yes"/>
      <point x="516" y="97"/>
      <point x="515" y="148"/>
      <point x="515" y="236" type="curve" smooth="yes"/>
      <point x="515" y="770" type="line"/>
      <point x="303" y="734" type="line"/>
      <point x="303" y="704" type="line"/>
      <point x="367" y="704"/>
      <point x="395" y="694"/>
      <point x="401" y="667" type="curve" smooth="yes"/>
      <point x="405" y="651"/>
      <point x="407" y="598"/>
      <point x="407" y="526" type="curve"/>
      <point x="407" y="439" type="line"/>
      <point x="403" y="439" type="line"/>
      <point x="370" y="477"/>
      <point x="326" y="501"/>
      <point x="267" y="501" type="curve"/>
      <point x="134" y="501"/>
      <point x="41" y="392"/>
      <point x="41" y="244" type="curve" smooth="yes"/>
      <point x="41" y="91"/>
      <point x="134" y="-9"/>
      <point x="269" y="-9" type="curve"/>
      <point x="342" y="-9"/>
      <point x="389" y="20"/>
      <point x="429" y="69" type="curve"/>
      <point x="433" y="69" type="line"/>
    </contour>
    <contour>
      <point x="405" y="226" type="line"/>
      <point x="405" y="83"/>
      <point x="359" y="39"/>
      <point x="288" y="39" type="curve"/>
      <point x="204" y="39"/>
      <point x="161" y="119"/>
      <point x="161" y="248" type="curve" smooth="yes"/>
      <point x="161" y="376"/>
      <point x="203" y="450"/>
      <point x="289" y="450" type="curve"/>
      <point x="362" y="450"/>
      <point x="405" y="393"/>
      <point x="405" y="275" type="curve" smooth="yes"/>
    </contour>
    <contour>
      <point x="269" y="0" type="move" name="bottom"/>
    </contour>
  </outline>
</glyph>
<glyph name="i" format="1">
  <advance width="327"/>
  <unicode hex="0069"/>
  <outline>
    <contour>
      <point x="226" y="501" type="line"/>
      <point x="27" y="465" type="line"/>
      <point x="27" y="433" type="line"/>
      <point x="86" y="433"/>
      <point x="103" y="426"/>
      <point x="109" y="396" type="curve" smooth="yes"/>
      <point x="113" y="379"/>
      <point x="115" y="332"/>
      <point x="115" y="260" type="curve" smooth="yes"/>
      <point x="115" y="143" type="line"/>
      <point x="115" y="56"/>
      <point x="102" y="38"/>
      <point x="29" y="35" type="curve"/>
      <point x="29" y="0" type="line"/>
      <point x="309" y="0" type="line"/>
      <point x="309" y="35" type="line"/>
      <point x="237" y="38"/>
      <point x="226" y="53"/>
      <point x="226" y="150" type="curve" smooth="yes"/>
    </contour>
    <contour>
      <point x="86" y="683" type="curve" smooth="yes"/>
      <point x="86" y="643"/>
      <point x="118" y="610"/>
      <point x="159" y="610" type="curve" smooth="yes"/>
      <point x="201" y="610"/>
      <point x="233" y="643"/>
      <point x="233" y="683" type="curve" smooth="yes"/>
      <point x="233" y="725"/>
      <point x="201" y="758"/>
      <point x="159" y="758" type="curve" smooth="yes"/>
      <point x="118" y="758"/>
      <point x="86" y="725"/>
    </contour>
    <contour>
      <point x="169" y="604" type="move" name="top"/>
    </contour>
    <contour>
      <point x="172" y="0" type="move" name="bottom"/>
    </contour>
  </outline>
</glyph>
<glyph name="k" format="1">
  <advance width="597"/>
  <unicode hex="006B"/>
  <outline>
    <contour>
      <point x="295" y="0" type="line"/>
      <point x="295" y="35" type="line"/>
      <point x="224" y="36"/>
      <point x="212" y="53"/>
      <point x="212" y="150" type="curve"/>
      <point x="212" y="186" type="line"/>
      <point x="451" y="405" type="line"/>
      <point x="495" y="447"/>
      <point x="523" y="457"/>
      <point x="570" y="457" type="curve"/>
      <point x="570" y="492" type="line"/>
      <point x="315" y="492" type="line"/>
      <point x="315" y="457" type="line"/>
      <point x="369" y="457"/>
      <point x="391" y="452"/>
      <point x="392" y="438" type="curve" smooth="yes"/>
      <point x="393" y="424"/>
      <point x="379" y="406"/>
      <point x="311" y="342" type="curve" smooth="yes"/>
      <point x="212" y="250" type="line"/>
      <point x="212" y="770" type="line"/>
      <point x="16" y="735" type="line"/>
      <point x="16" y="702" type="line"/>
      <point x="57" y="702"/>
      <point x="79" y="701"/>
      <point x="90" y="681" type="curve" smooth="yes"/>
      <point x="101" y="663"/>
      <point x="101" y="620"/>
      <point x="101" y="534" type="curve" smooth="yes"/>
      <point x="101" y="143" type="line"/>
      <point x="101" y="54"/>
      <point x="88" y="37"/>
      <point x="16" y="35" type="curve"/>
      <point x="16" y="0" type="line"/>
    </contour>
    <contour>
      <point x="256" y="256" type="line"/>
      <point x="344" y="121" type="line"/>
      <point x="369" y="85"/>
      <point x="384" y="59"/>
      <point x="384" y="49" type="curve" smooth="yes"/>
      <point x="384" y="38"/>
      <point x="372" y="35"/>
      <point x="339" y="35" type="curve"/>
      <point x="339" y="0" type="line"/>
      <point x="597" y="0" type="line"/>
      <point x="597" y="35" type="line"/>
      <point x="551" y="35"/>
      <point x="525" y="47"/>
      <point x="495" y="89" type="curve" smooth="yes"/>
      <point x="330" y="324" type="line"/>
    </contour>
    <contour>
      <point x="322" y="0" type="move" name="bottom"/>
    </contour>
  </outline>
</glyph>
<glyph name="l" format="1">
  <advance width="318"/>
  <unicode hex="006C"/>
  <outline>
    <contour>
      <point x="214" y="770" type="line"/>
      <point x="16" y="735" type="line"/>
      <point x="16" y="703" type="line"/>
      <point x="74" y="703"/>
      <point x="91" y="696"/>
      <point x="98" y="667" type="curve"/>
      <point x="101" y="650"/>
      <point x="104" y="603"/>
      <point x="104" y="534" type="curve"/>
      <point x="104" y="141" type="line"/>
      <point x="104" y="55"/>
      <point x="90" y="38"/>
      <point x="19" y="35" type="curve"/>
      <point x="19" y="0" type="line"/>
      <point x="296" y="0" type="line"/>
      <point x="296" y="35" type="line"/>
      <point x="224" y="38"/>
      <point x="214" y="52"/>
      <point x="214" y="148" type="curve"/>
    </contour>
    <contour>
      <point x="166" y="770" type="move" name="topcap"/>
    </contour>
    <contour>
      <point x="167" y="0" type="move" name="bottom"/>
    </contour>
  </outline>
</glyph>
<glyph name="n" format="1">
  <advance width="658"/>
  <unicode hex="006E"/>
  <outline>
    <contour>
      <point x="206" y="414" type="line"/>
      <point x="194" y="501" type="line"/>
      <point x="28" y="465" type="line"/>
      <point x="28" y="435" type="line"/>
      <point x="83" y="435"/>
      <point x="97" y="430"/>
      <point x="105" y="397" type="curve"/>
      <point x="108" y="381"/>
      <point x="110" y="334"/>
      <point x="111" y="262" type="curve"/>
      <point x="111" y="142" type="line"/>
      <point x="110" y="49"/>
      <point x="101" y="39"/>
      <point x="31" y="34" type="curve"/>
      <point x="31" y="0" type="line"/>
      <point x="296" y="0" type="line"/>
      <point x="296" y="35" type="line"/>
      <point x="227" y="39"/>
      <point x="221" y="48"/>
      <point x="222" y="149" type="curve"/>
      <point x="222" y="277" type="line"/>
      <point x="221" y="389"/>
      <point x="268" y="446"/>
      <point x="345" y="446" type="curve"/>
      <point x="420" y="446"/>
      <point x="453" y="400"/>
      <point x="453" y="271" type="curve"/>
      <point x="453" y="143" type="line"/>
      <point x="453" y="50"/>
      <point x="444" y="38"/>
      <point x="377" y="35" type="curve"/>
      <point x="377" y="0" type="line"/>
      <point x="640" y="0" type="line"/>
      <point x="640" y="35" type="line"/>
      <point x="569" y="39"/>
      <point x="563" y="49"/>
      <point x="563" y="149" type="curve"/>
      <point x="563" y="289" type="line"/>
      <point x="563" y="440"/>
      <point x="490" y="501"/>
      <point x="379" y="501" type="curve"/>
      <point x="310" y="501"/>
      <point x="251" y="472"/>
      <point x="209" y="414" type="curve"/>
    </contour>
    <contour>
      <point x="335" y="604" type="move" name="top"/>
    </contour>
    <contour>
      <point x="335" y="0" type="move" name="bottom"/>
    </contour>
  </outline>
</glyph>
<glyph name="q" format="1">
  <advance width="597"/>
  <unicode hex="0071"/>
  <outline>
    <contour>
      <point x="407" y="-88" type="line"/>
      <point x="407" y="-172"/>
      <point x="385" y="-195"/>
      <point x="301" y="-197" type="curve"/>
      <point x="301" y="-232" type="line"/>
      <point x="608" y="-232" type="line"/>
      <point x="608" y="-197" type="line"/>
      <point x="522" y="-194"/>
      <point x="515" y="-184"/>
      <point x="515" y="-81" type="curve"/>
      <point x="515" y="492" type="line"/>
      <point x="480" y="492" type="line"/>
      <point x="439" y="434" type="line"/>
      <point x="394" y="477"/>
      <point x="341" y="502"/>
      <point x="279" y="502" type="curve"/>
      <point x="134" y="502"/>
      <point x="41" y="396"/>
      <point x="41" y="245" type="curve" smooth="yes"/>
      <point x="41" y="98"/>
      <point x="126" y="-9"/>
      <point x="259" y="-9" type="curve" smooth="yes"/>
      <point x="322" y="-9"/>
      <point x="367" y="14"/>
      <point x="403" y="61" type="curve"/>
      <point x="407" y="61" type="line"/>
    </contour>
    <contour>
      <point x="405" y="222" type="line"/>
      <point x="405" y="101"/>
      <point x="360" y="41"/>
      <point x="286" y="41" type="curve" smooth="yes"/>
      <point x="205" y="41"/>
      <point x="161" y="121"/>
      <point x="161" y="248" type="curve" smooth="yes"/>
      <point x="161" y="376"/>
      <point x="204" y="453"/>
      <point x="288" y="453" type="curve"/>
      <point x="364" y="453"/>
      <point x="405" y="386"/>
      <point x="405" y="294" type="curve" smooth="yes"/>
    </contour>
  </outline>
</glyph>
<glyph name="r" format="1">
  <advance width="454"/>
  <unicode hex="0072"/>
  <outline>
    <contour>
      <point x="223" y="198" type="line"/>
      <point x="223" y="333"/>
      <point x="259" y="412"/>
      <point x="305" y="412" type="curve" smooth="yes"/>
      <point x="340" y="412"/>
      <point x="353" y="377"/>
      <point x="392" y="377" type="curve"/>
      <point x="426" y="377"/>
      <point x="451" y="402"/>
      <point x="451" y="441" type="curve"/>
      <point x="451" y="475"/>
      <point x="424" y="501"/>
      <point x="377" y="501" type="curve" smooth="yes"/>
      <point x="317" y="501"/>
      <point x="252" y="454"/>
      <point x="219" y="385" type="curve"/>
      <point x="216" y="385" type="line"/>
      <point x="202" y="495" type="line"/>
      <point x="29" y="460" type="line"/>
      <point x="29" y="428" type="line"/>
      <point x="107" y="428"/>
      <point x="113" y="416"/>
      <point x="113" y="254" type="curve" smooth="yes"/>
      <point x="113" y="143" type="line"/>
      <point x="113" y="50"/>
      <point x="105" y="39"/>
      <point x="32" y="35" type="curve"/>
      <point x="32" y="0" type="line"/>
      <point x="320" y="0" type="line"/>
      <point x="320" y="35" type="line"/>
      <point x="233" y="38"/>
      <point x="223" y="47"/>
      <point x="223" y="145" type="curve" smooth="yes"/>
    </contour>
    <contour>
      <point x="261" y="604" type="move" name="top"/>
    </contour>
    <contour>
      <point x="171" y="0" type="move" name="bottom"/>
    </contour>
  </outline>
</glyph>
<glyph name="u" format="1">
  <advance width="645"/>
  <unicode hex="0075"/>
  <outline>
    <contour>
      <point x="436" y="240" type="line"/>
      <point x="436" y="115"/>
      <point x="385" y="49"/>
      <point x="306" y="49" type="curve"/>
      <point x="245" y="49"/>
      <point x="204" y="84"/>
      <point x="204" y="211" type="curve"/>
      <point x="204" y="492" type="line"/>
      <point x="16" y="492" type="line"/>
      <point x="16" y="457" type="line"/>
      <point x="89" y="450"/>
      <point x="94" y="443"/>
      <point x="94" y="342" type="curve" smooth="yes"/>
      <point x="94" y="199" type="line"/>
      <point x="94" y="43"/>
      <point x="167" y="-9"/>
      <point x="275" y="-9" type="curve" smooth="yes"/>
      <point x="348" y="-9"/>
      <point x="411" y="24"/>
      <point x="452" y="88" type="curve"/>
      <point x="456" y="88" type="line"/>
      <point x="466" y="-10" type="line"/>
      <point x="628" y="1" type="line"/>
      <point x="628" y="35" type="line"/>
      <point x="570" y="35"/>
      <point x="558" y="40"/>
      <point x="552" y="72" type="curve" smooth="yes"/>
      <point x="548" y="93"/>
      <point x="546" y="136"/>
      <point x="546" y="209" type="curve" smooth="yes"/>
      <point x="546" y="492" type="line"/>
      <point x="357" y="492" type="line"/>
      <point x="357" y="457" type="line"/>
      <point x="430" y="450"/>
      <point x="436" y="442"/>
      <point x="436" y="342" type="curve" smooth="yes"/>
    </contour>
    <contour>
      <point x="304" y="604" type="move" name="top"/>
    </contour>
    <contour>
      <point x="284" y="0" type="move" name="bottom"/>
    </contour>
  </outline>
</glyph>
<glyph name="w" format="1">
  <advance width="821"/>
  <unicode hex="0077"/>
  <outline>
    <contour>
      <point x="287" y="-9" type="line"/>
      <point x="234" y="-9" type="line"/>
      <point x="99" y="374" type="line"/>
      <point x="77" y="437"/>
      <point x="58" y="456"/>
      <point x="10" y="457" type="curve"/>
      <point x="10" y="492" type="line"/>
      <point x="268" y="492" type="line"/>
      <point x="268" y="457" type="line"/>
      <point x="221" y="457"/>
      <point x="203" y="448"/>
      <point x="203" y="420" type="curve" smooth="yes"/>
      <point x="203" y="407"/>
      <point x="208" y="389"/>
      <point x="215" y="367" type="curve" smooth="yes"/>
      <point x="285" y="146" type="line"/>
      <point x="289" y="146" type="line"/>
      <point x="415" y="492" type="line"/>
      <point x="465" y="492" type="line"/>
      <point x="597" y="148" type="line"/>
      <point x="601" y="148" type="line"/>
      <point x="661" y="317" type="line"/>
      <point x="677" y="366"/>
      <point x="687" y="397"/>
      <point x="687" y="418" type="curve" smooth="yes"/>
      <point x="687" y="448"/>
      <point x="665" y="457"/>
      <point x="622" y="457" type="curve"/>
      <point x="622" y="492" type="line"/>
      <point x="814" y="492" type="line"/>
      <point x="814" y="457" type="line"/>
      <point x="774" y="457"/>
      <point x="756" y="443"/>
      <point x="716" y="330" type="curve" smooth="yes"/>
      <point x="597" y="-9" type="line"/>
      <point x="543" y="-9" type="line"/>
      <point x="415" y="328" type="line"/>
      <point x="412" y="328" type="line"/>
    </contour>
    <contour>
      <point x="451" y="604" type="move" name="top"/>
    </contour>
  </outline>
</glyph>
<glyph name="y" format="1">
  <advance width="591"/>
  <unicode hex="0079"/>
  <outline>
    <contour>
      <point x="130" y="-241" type="curve" smooth="yes"/>
      <point x="187" y="-241"/>
      <point x="241" y="-210"/>
      <point x="272" y="-140" type="curve" smooth="yes"/>
      <point x="465" y="302" type="line"/>
      <point x="526" y="440"/>
      <point x="542" y="457"/>
      <point x="589" y="457" type="curve"/>
      <point x="589" y="492" type="line"/>
      <point x="375" y="492" type="line"/>
      <point x="375" y="457" type="line"/>
      <point x="423" y="457"/>
      <point x="445" y="452"/>
      <point x="445" y="425" type="curve" smooth="yes"/>
      <point x="445" y="403"/>
      <point x="432" y="364"/>
      <point x="403" y="298" type="curve" smooth="yes"/>
      <point x="328" y="117" type="line"/>
      <point x="321" y="117" type="line"/>
      <point x="224" y="359" type="line"/>
      <point x="213" y="388"/>
      <point x="205" y="410"/>
      <point x="205" y="424" type="curve" smooth="yes"/>
      <point x="205" y="449"/>
      <point x="224" y="457"/>
      <point x="270" y="457" type="curve"/>
      <point x="270" y="492" type="line"/>
      <point x="6" y="492" type="line"/>
      <point x="6" y="457" type="line"/>
      <point x="54" y="454"/>
      <point x="66" y="445"/>
      <point x="98" y="374" type="curve" smooth="yes"/>
      <point x="272" y="-13" type="line"/>
      <point x="243" y="-72" type="line"/>
      <point x="222" y="-115"/>
      <point x="191" y="-118"/>
      <point x="138" y="-127" type="curve" smooth="yes"/>
      <point x="82" y="-135"/>
      <point x="61" y="-155"/>
      <point x="61" y="-187" type="curve" smooth="yes"/>
      <point x="61" y="-219"/>
      <point x="87" y="-241"/>
    </contour>
    <contour>
      <point x="333" y="604" type="move" name="top"/>
    </contour>
  </outline>
</glyph>
<glyph name="z" format="1">
  <advance width="520"/>
  <unicode hex="007A"/>
  <outline>
    <contour>
      <point x="484" y="152" type="line"/>
      <point x="451" y="152" type="line"/>
      <point x="428" y="64"/>
      <point x="398" y="48"/>
      <point x="269" y="48" type="curve" smooth="yes"/>
      <point x="155" y="48" type="line"/>
      <point x="469" y="456" type="line"/>
      <point x="469" y="492" type="line"/>
      <point x="63" y="492" type="line"/>
      <point x="50" y="354" type="line"/>
      <point x="83" y="354" type="line"/>
      <point x="97" y="433"/>
      <point x="120" y="446"/>
      <point x="226" y="446" type="curve" smooth="yes"/>
      <point x="336" y="446" type="line"/>
      <point x="20" y="36" type="line"/>
      <point x="20" y="0" type="line"/>
      <point x="470" y="0" type="line"/>
    </contour>
    <contour>
      <point x="274" y="604" type="move" name="top"/>
    </contour>
    <contour>
      <point x="269" y="0" type="move" name="bottom"/>
    </contour>
  </outline>
</glyph>
<glyph name="bar" format="1">
  <advance width="271"/>
  <unicode hex="007C"/>
  <outline>
    <contour>
      <point x="93" y="760" type="line"/>
      <point x="93" y="-232" type="line"/>
      <point x="178" y="-232" type="line"/>
      <point x="178" y="760" type="line"/>
    </contour>
  </outline>
</glyph>
<glyph name="braceright" format="1">
  <advance width="326"/>
  <unicode hex="007D"/>
  <outline>
    <contour>
      <point x="113" y="2" type="line"/>
      <point x="113" y="-63"/>
      <point x="96" y="-97"/>
      <point x="32" y="-114" type="curve"/>
      <point x="32" y="-139" type="line"/>
      <point x="169" y="-139"/>
      <point x="219" y="-108"/>
      <point x="219" y="4" type="curve" smooth="yes"/>
      <point x="219" y="183" type="line"/>
      <point x="219" y="239"/>
      <point x="239" y="298"/>
      <point x="304" y="304" type="curve"/>
      <point x="304" y="331" type="line"/>
      <point x="233" y="346"/>
      <point x="219" y="380"/>
      <point x="219" y="451" type="curve" smooth="yes"/>
      <point x="219" y="611" type="line"/>
      <point x="219" y="729"/>
      <point x="180" y="770"/>
      <point x="36" y="770" type="curve"/>
      <point x="36" y="744" type="line"/>
      <point x="95" y="730"/>
      <point x="113" y="693"/>
      <point x="113" y="629" type="curve" smooth="yes"/>
      <point x="113" y="464" type="line"/>
      <point x="113" y="388"/>
      <point x="126" y="337"/>
      <point x="210" y="320" type="curve"/>
      <point x="210" y="316" type="line"/>
      <point x="132" y="302"/>
      <point x="113" y="258"/>
      <point x="113" y="184" type="curve" smooth="yes"/>
    </contour>
  </outline>
</glyph>
<glyph name="asciitilde" format="1">
  <advance width="517"/>
  <unicode hex="007E"/>
  <outline>
    <contour>
      <point x="110" y="227" type="line"/>
      <point x="119" y="255"/>
      <point x="128" y="264"/>
      <point x="153" y="264" type="curve" smooth="yes"/>
      <point x="216" y="264"/>
      <point x="286" y="220"/>
      <point x="341" y="220" type="curve" smooth="yes"/>
      <point x="394" y="220"/>
      <point x="434" y="273"/>
      <point x="445" y="346" type="curve"/>
      <point x="410" y="346" type="line"/>
      <point x="400" y="317"/>
      <point x="389" y="307"/>
      <point x="364" y="307" type="curve" smooth="yes"/>
      <point x="308" y="307"/>
      <point x="235" y="350"/>
      <point x="181" y="350" type="curve" smooth="yes"/>
      <point x="126" y="350"/>
      <point x="85" y="297"/>
      <point x="73" y="227" type="curve"/>
    </contour>
  </outline>
</glyph>
<glyph name="exclamdown" format="1">
  <advance width="287"/>
  <unicode hex="00A1"/>
  <outline>
    <contour>
      <point x="182" y="505" type="curve"/>
      <point x="132" y="505" type="line"/>
      <point x="132" y="303"/>
      <point x="77" y="185"/>
      <point x="77" y="76" type="curve" smooth="yes"/>
      <point x="77" y="20"/>
      <point x="114" y="-9"/>
      <point x="157" y="-9" type="curve" smooth="yes"/>
      <point x="199" y="-9"/>
      <point x="236" y="20"/>
      <point x="236" y="76" type="curve" smooth="yes"/>
      <point x="236" y="180"/>
      <point x="182" y="294"/>
    </contour>
    <contour>
      <point x="87" y="654" type="curve" smooth="yes"/>
      <point x="87" y="615"/>
      <point x="118" y="584"/>
      <point x="156" y="584" type="curve" smooth="yes"/>
      <point x="197" y="584"/>
      <point x="227" y="615"/>
      <point x="227" y="654" type="curve" smooth="yes"/>
      <point x="227" y="693"/>
      <point x="197" y="724"/>
      <point x="156" y="724" type="curve" smooth="yes"/>
      <point x="118" y="724"/>
      <point x="87" y="693"/>
    </contour>
  </outline>
</glyph>
<glyph name="cent" format="1">
  <advance width="530"/>
  <unicode hex="00A2"/>
  <outline>
    <contour>
      <point x="166" y="257" type="curve" smooth="yes"/>
      <point x="166" y="378"/>
      <point x="202" y="447"/>
      <point x="273" y="452" type="curve"/>
      <point x="273" y="53" type="line"/>
      <point x="201" y="70"/>
      <point x="166" y="141"/>
    </contour>
    <contour>
      <point x="325" y="-4" type="line"/>
      <point x="391" y="4"/>
      <point x="450" y="33"/>
      <point x="489" y="77" type="curve"/>
      <point x="463" y="107" type="line"/>
      <point x="419" y="69"/>
      <point x="377" y="49"/>
      <point x="325" y="47" type="curve"/>
      <point x="325" y="444" type="line"/>
      <point x="342" y="437"/>
      <point x="354" y="424"/>
      <point x="369" y="401" type="curve"/>
      <point x="392" y="363"/>
      <point x="411" y="354"/>
      <point x="437" y="354" type="curve" smooth="yes"/>
      <point x="469" y="354"/>
      <point x="490" y="375"/>
      <point x="490" y="405" type="curve" smooth="yes"/>
      <point x="490" y="458"/>
      <point x="420" y="497"/>
      <point x="325" y="500" type="curve"/>
      <point x="325" y="634" type="line"/>
      <point x="273" y="634" type="line"/>
      <point x="273" y="500" type="line"/>
      <point x="133" y="489"/>
      <point x="45" y="390"/>
      <point x="45" y="243" type="curve" smooth="yes"/>
      <point x="45" y="94"/>
      <point x="133" y="-1"/>
      <point x="273" y="-7" type="curve"/>
      <point x="273" y="-137" type="line"/>
      <point x="325" y="-137" type="line"/>
    </contour>
  </outline>
</glyph>
<glyph name="currency" format="1">
  <advance width="567"/>
  <unicode hex="00A4"/>
  <outline>
    <contour>
      <point x="55" y="53" type="line"/>
      <point x="87" y="21" type="line"/>
      <point x="155" y="87" type="line"/>
      <point x="189" y="58"/>
      <point x="233" y="42"/>
      <point x="284" y="42" type="curve" smooth="yes"/>
      <point x="333" y="42"/>
      <point x="377" y="57"/>
      <point x="412" y="86" type="curve"/>
      <point x="479" y="20" type="line"/>
      <point x="513" y="53" type="line"/>
      <point x="445" y="119" type="line"/>
      <point x="474" y="153"/>
      <point x="490" y="196"/>
      <point x="490" y="244" type="curve" smooth="yes"/>
      <point x="490" y="292"/>
      <point x="474" y="335"/>
      <point x="445" y="370" type="curve"/>
      <point x="513" y="437" type="line"/>
      <point x="479" y="469" type="line"/>
      <point x="412" y="402" type="line"/>
      <point x="376" y="431"/>
      <point x="333" y="446"/>
      <point x="284" y="446" type="curve" smooth="yes"/>
      <point x="234" y="446"/>
      <point x="190" y="431"/>
      <point x="155" y="402" type="curve"/>
      <point x="87" y="469" type="line"/>
      <point x="54" y="437" type="line"/>
      <point x="122" y="370" type="line"/>
      <point x="93" y="335"/>
      <point x="77" y="292"/>
      <point x="77" y="244" type="curve" smooth="yes"/>
      <point x="77" y="196"/>
      <point x="94" y="153"/>
      <point x="122" y="119" type="curve"/>
    </contour>
    <contour>
      <point x="129" y="244" type="curve" smooth="yes"/>
      <point x="129" y="327"/>
      <point x="199" y="395"/>
      <point x="284" y="395" type="curve" smooth="yes"/>
      <point x="368" y="395"/>
      <point x="439" y="327"/>
      <point x="439" y="244" type="curve" smooth="yes"/>
      <point x="439" y="161"/>
      <point x="368" y="93"/>
      <point x="284" y="93" type="curve" smooth="yes"/>
      <point x="199" y="93"/>
      <point x="129" y="161"/>
    </contour>
  </outline>
</glyph>
<glyph name="yen" format="1">
  <advance width="771"/>
  <unicode hex="00A5"/>
  <outline>
    <contour>
      <point x="227" y="0" type="line"/>
      <point x="545" y="0" type="line"/>
      <point x="545" y="36" type="line"/>
      <point x="465" y="36"/>
      <point x="448" y="52"/>
      <point x="446" y="160" type="curve"/>
      <point x="605" y="160" type="line"/>
      <point x="605" y="218" type="line"/>
      <point x="446" y="218" type="line"/>
      <point x="446" y="280" type="line"/>
      <point x="605" y="280" type="line"/>
      <point x="605" y="338" type="line"/>
      <point x="480" y="338" type="line"/>
      <point x="586" y="516" type="line"/>
      <point x="666" y="652"/>
      <point x="692" y="678"/>
      <point x="744" y="678" type="curve"/>
      <point x="744" y="714" type="line"/>
      <point x="518" y="714" type="line"/>
      <point x="518" y="678" type="line"/>
      <point x="571" y="678"/>
      <point x="587" y="671"/>
      <point x="587" y="648" type="curve" smooth="yes"/>
      <point x="587" y="627"/>
      <point x="572" y="594"/>
      <point x="532" y="526" type="curve" smooth="yes"/>
      <point x="419" y="339" type="line"/>
      <point x="415" y="339" type="line"/>
      <point x="279" y="591" type="line"/>
      <point x="265" y="618"/>
      <point x="257" y="636"/>
      <point x="257" y="648" type="curve" smooth="yes"/>
      <point x="257" y="669"/>
      <point x="278" y="678"/>
      <point x="335" y="678" type="curve"/>
      <point x="335" y="714" type="line"/>
      <point x="27" y="714" type="line"/>
      <point x="27" y="678" type="line"/>
      <point x="77" y="678"/>
      <point x="93" y="662"/>
      <point x="133" y="598" type="curve" smooth="yes"/>
      <point x="291" y="338" type="line"/>
      <point x="166" y="338" type="line"/>
      <point x="166" y="280" type="line"/>
      <point x="326" y="280" type="line"/>
      <point x="326" y="218" type="line"/>
      <point x="166" y="218" type="line"/>
      <point x="166" y="160" type="line"/>
      <point x="326" y="160" type="line"/>
      <point x="325" y="54"/>
      <point x="307" y="36"/>
      <point x="227" y="36" type="curve"/>
    </contour>
  </outline>
</glyph>
<glyph name="dieresis" format="1">
  <advance width="318"/>
  <unicode hex="00A8"/>
  <outline>
    <contour>
      <point x="18" y="671" type="curve" smooth="yes"/>
      <point x="18" y="639"/>
      <point x="43" y="614"/>
      <point x="75" y="614" type="curve" smooth="yes"/>
      <point x="107" y="614"/>
      <point x="132" y="639"/>
      <point x="132" y="671" type="curve" smooth="yes"/>
      <point x="132" y="703"/>
      <point x="107" y="728"/>
      <point x="75" y="728" type="curve" smooth="yes"/>
      <point x="43" y="728"/>
      <point x="18" y="703"/>
    </contour>
    <contour>
      <point x="186" y="671" type="curve" smooth="yes"/>
      <point x="186" y="639"/>
      <point x="210" y="614"/>
      <point x="242" y="614" type="curve" smooth="yes"/>
      <point x="274" y="614"/>
      <point x="299" y="639"/>
      <point x="299" y="671" type="curve" smooth="yes"/>
      <point x="299" y="703"/>
      <point x="274" y="728"/>
      <point x="242" y="728" type="curve" smooth="yes"/>
      <point x="210" y="728"/>
      <point x="186" y="703"/>
    </contour>
    <contour>
      <point x="159" y="604" type="move" name="_top"/>
    </contour>
  </outline>
</glyph>
<glyph name="ordfeminine" format="1">
  <advance width="352"/>
  <unicode hex="00AA"/>
  <outline>
    <contour>
      <point x="199" y="575" type="line"/>
      <point x="199" y="538"/>
      <point x="178" y="507"/>
      <point x="152" y="507" type="curve" smooth="yes"/>
      <point x="134" y="507"/>
      <point x="121" y="520"/>
      <point x="121" y="538" type="curve" smooth="yes"/>
      <point x="121" y="561"/>
      <point x="142" y="582"/>
      <point x="199" y="604" type="curve"/>
    </contour>
    <contour>
      <point x="137" y="606" type="line"/>
      <point x="75" y="579"/>
      <point x="54" y="558"/>
      <point x="54" y="525" type="curve" smooth="yes"/>
      <point x="54" y="493"/>
      <point x="82" y="470"/>
      <point x="125" y="470" type="curve" smooth="yes"/>
      <point x="157" y="470"/>
      <point x="185" y="486"/>
      <point x="200" y="511" type="curve"/>
      <point x="204" y="511" type="line"/>
      <point x="204" y="484"/>
      <point x="219" y="470"/>
      <point x="250" y="470" type="curve" smooth="yes"/>
      <point x="275" y="470"/>
      <point x="300" y="480"/>
      <point x="309" y="496" type="curve"/>
      <point x="302" y="511" type="line"/>
      <point x="296" y="502"/>
      <point x="289" y="499"/>
      <point x="280" y="499" type="curve" smooth="yes"/>
      <point x="265" y="499"/>
      <point x="259" y="517"/>
      <point x="259" y="553" type="curve" smooth="yes"/>
      <point x="259" y="652" type="line"/>
      <point x="259" y="704"/>
      <point x="234" y="724"/>
      <point x="165" y="724" type="curve" smooth="yes"/>
      <point x="98" y="724"/>
      <point x="61" y="698"/>
      <point x="61" y="670" type="curve" smooth="yes"/>
      <point x="61" y="651"/>
      <point x="72" y="644"/>
      <point x="87" y="644" type="curve" smooth="yes"/>
      <point x="100" y="644"/>
      <point x="109" y="652"/>
      <point x="113" y="668" type="curve" smooth="yes"/>
      <point x="120" y="692"/>
      <point x="128" y="697"/>
      <point x="156" y="697" type="curve" smooth="yes"/>
      <point x="186" y="697"/>
      <point x="199" y="682"/>
      <point x="199" y="650" type="curve" smooth="yes"/>
      <point x="199" y="635" type="line"/>
    </contour>
  </outline>
</glyph>
<glyph name="guillemotleft" format="1">
  <advance width="480"/>
  <unicode hex="00AB"/>
  <outline>
    <contour>
      <point x="211" y="85" type="line"/>
      <point x="235" y="105" type="line"/>
      <point x="148" y="243" type="line"/>
      <point x="237" y="381" type="line"/>
      <point x="213" y="402" type="line"/>
      <point x="44" y="243" type="line"/>
    </contour>
    <contour>
      <point x="391" y="85" type="line"/>
      <point x="415" y="105" type="line"/>
      <point x="327" y="243" type="line"/>
      <point x="416" y="381" type="line"/>
      <point x="393" y="402" type="line"/>
      <point x="224" y="243" type="line"/>
    </contour>
  </outline>
</glyph>
<glyph name="registered" format="1">
  <advance width="830"/>
  <unicode hex="00AE"/>
  <outline>
    <contour>
      <point x="782" y="358" type="curve" smooth="yes"/>
      <point x="782" y="562"/>
      <point x="617" y="724"/>
      <point x="412" y="724" type="curve" smooth="yes"/>
      <point x="210" y="724"/>
      <point x="48" y="559"/>
      <point x="48" y="357" type="curve" smooth="yes"/>
      <point x="48" y="156"/>
      <point x="211" y="-9"/>
      <point x="413" y="-9" type="curve" smooth="yes"/>
      <point x="617" y="-9"/>
      <point x="782" y="154"/>
    </contour>
    <contour>
      <point x="732" y="358" type="curve" smooth="yes"/>
      <point x="732" y="183"/>
      <point x="589" y="40"/>
      <point x="413" y="40" type="curve" smooth="yes"/>
      <point x="237" y="40"/>
      <point x="97" y="183"/>
      <point x="97" y="357" type="curve" smooth="yes"/>
      <point x="97" y="531"/>
      <point x="236" y="675"/>
      <point x="412" y="675" type="curve" smooth="yes"/>
      <point x="589" y="675"/>
      <point x="732" y="535"/>
    </contour>
    <contour>
      <point x="560" y="470" type="curve" smooth="yes"/>
      <point x="560" y="532"/>
      <point x="500" y="571"/>
      <point x="396" y="571" type="curve" smooth="yes"/>
      <point x="230" y="571" type="line"/>
      <point x="230" y="545" type="line"/>
      <point x="267" y="543"/>
      <point x="274" y="534"/>
      <point x="274" y="487" type="curve" smooth="yes"/>
      <point x="274" y="250" type="line"/>
      <point x="274" y="204"/>
      <point x="266" y="194"/>
      <point x="224" y="193" type="curve"/>
      <point x="224" y="170" type="line"/>
      <point x="412" y="170" type="line"/>
      <point x="412" y="193" type="line"/>
      <point x="357" y="193"/>
      <point x="350" y="204"/>
      <point x="350" y="253" type="curve" smooth="yes"/>
      <point x="350" y="355" type="line"/>
      <point x="371" y="355"/>
      <point x="380" y="352"/>
      <point x="397" y="329" type="curve" smooth="yes"/>
      <point x="519" y="170" type="line"/>
      <point x="634" y="170" type="line"/>
      <point x="634" y="193" type="line"/>
      <point x="604" y="197"/>
      <point x="588" y="206"/>
      <point x="570" y="227" type="curve" smooth="yes"/>
      <point x="456" y="365" type="line"/>
      <point x="527" y="376"/>
      <point x="560" y="415"/>
    </contour>
    <contour>
      <point x="350" y="532" type="line"/>
      <point x="350" y="537"/>
      <point x="352" y="540"/>
      <point x="359" y="540" type="curve" smooth="yes"/>
      <point x="396" y="540" type="line"/>
      <point x="451" y="540"/>
      <point x="471" y="520"/>
      <point x="471" y="467" type="curve" smooth="yes"/>
      <point x="471" y="410"/>
      <point x="445" y="386"/>
      <point x="381" y="386" type="curve" smooth="yes"/>
      <point x="350" y="386" type="line"/>
    </contour>
  </outline>
</glyph>
<glyph name="degree" format="1">
  <advance width="316"/>
  <unicode hex="00B0"/>
  <outline>
    <contour>
      <point x="44" y="612" type="curve" smooth="yes"/>
      <point x="44" y="551"/>
      <point x="95" y="501"/>
      <point x="158" y="501" type="curve" smooth="yes"/>
      <point x="221" y="501"/>
      <point x="272" y="551"/>
      <point x="272" y="612" type="curve" smooth="yes"/>
      <point x="272" y="673"/>
      <point x="221" y="724"/>
      <point x="158" y="724" type="curve" smooth="yes"/>
      <point x="95" y="724"/>
      <point x="44" y="673"/>
    </contour>
    <contour>
      <point x="79" y="612" type="curve" smooth="yes"/>
      <point x="79" y="654"/>
      <point x="115" y="688"/>
      <point x="158" y="688" type="curve" smooth="yes"/>
      <point x="201" y="688"/>
      <point x="236" y="654"/>
      <point x="236" y="612" type="curve" smooth="yes"/>
      <point x="236" y="570"/>
      <point x="201" y="536"/>
      <point x="158" y="536" type="curve" smooth="yes"/>
      <point x="115" y="536"/>
      <point x="79" y="570"/>
    </contour>
  </outline>
</glyph>
<glyph name="plusminus" format="1">
  <advance width="585"/>
  <unicode hex="00B1"/>
  <outline>
    <contour>
      <point x="320" y="214" type="line"/>
      <point x="320" y="408" type="line"/>
      <point x="515" y="408" type="line"/>
      <point x="515" y="460" type="line"/>
      <point x="320" y="460" type="line"/>
      <point x="320" y="654" type="line"/>
      <point x="265" y="654" type="line"/>
      <point x="265" y="460" type="line"/>
      <point x="71" y="460" type="line"/>
      <point x="71" y="408" type="line"/>
      <point x="265" y="408" type="line"/>
      <point x="265" y="214" type="line"/>
    </contour>
    <contour>
      <point x="515" y="138" type="line"/>
      <point x="71" y="138" type="line"/>
      <point x="71" y="85" type="line"/>
      <point x="515" y="85" type="line"/>
    </contour>
  </outline>
</glyph>
<glyph name="acute" format="1">
  <advance width="266"/>
  <unicode hex="00B4"/>
  <outline>
    <contour>
      <point x="66" y="604" type="line"/>
      <point x="194" y="662" type="line"/>
      <point x="227" y="677"/>
      <point x="248" y="693"/>
      <point x="248" y="712" type="curve" smooth="yes"/>
      <point x="248" y="736"/>
      <point x="232" y="749"/>
      <point x="206" y="749" type="curve" smooth="yes"/>
      <point x="184" y="749"/>
      <point x="162" y="739"/>
      <point x="136" y="714" type="curve" smooth="yes"/>
      <point x="17" y="604" type="line"/>
    </contour>
    <contour>
      <point x="105" y="604" type="move" name="_top"/>
    </contour>
  </outline>
</glyph>
<glyph name="periodcentered" format="1">
  <advance width="273"/>
  <unicode hex="00B7"/>
  <outline>
    <contour>
      <point x="66" y="254" type="curve" smooth="yes"/>
      <point x="66" y="216"/>
      <point x="97" y="185"/>
      <point x="135" y="185" type="curve" smooth="yes"/>
      <point x="176" y="185"/>
      <point x="206" y="216"/>
      <point x="206" y="254" type="curve" smooth="yes"/>
      <point x="206" y="294"/>
      <point x="176" y="325"/>
      <point x="135" y="325" type="curve" smooth="yes"/>
      <point x="97" y="325"/>
      <point x="66" y="294"/>
    </contour>
  </outline>
</glyph>
<glyph name="onesuperior" format="1">
  <advance width="230"/>
  <unicode hex="00B9"/>
  <outline>
    <contour>
      <point x="141" y="724" type="line"/>
      <point x="113" y="715"/>
      <point x="80" y="708"/>
      <point x="51" y="708" type="curve"/>
      <point x="51" y="687" type="line"/>
      <point x="77" y="687"/>
      <point x="90" y="685"/>
      <point x="91" y="675" type="curve" smooth="yes"/>
      <point x="93" y="670"/>
      <point x="93" y="650"/>
      <point x="93" y="621" type="curve" smooth="yes"/>
      <point x="93" y="499" type="line"/>
      <point x="93" y="463"/>
      <point x="88" y="457"/>
      <point x="53" y="455" type="curve"/>
      <point x="53" y="434" type="line"/>
      <point x="181" y="434" type="line"/>
      <point x="181" y="455" type="line"/>
      <point x="146" y="456"/>
      <point x="141" y="463"/>
      <point x="141" y="501" type="curve" smooth="yes"/>
    </contour>
  </outline>
</glyph>
<glyph name="threequarters" format="1">
  <advance width="641"/>
  <unicode hex="00BE"/>
  <outline>
    <contour>
      <point x="612" y="714" type="line"/>
      <point x="558" y="714" type="line"/>
      <point x="34" y="0" type="line"/>
      <point x="96" y="0" type="line"/>
    </contour>
    <component base="fourinferior" xOffset="325"/>
    <component base="threesuperior" xOffset="56"/>
  </outline>
</glyph>
<glyph name="questiondown" format="1">
  <advance width="373"/>
  <unicode hex="00BF"/>
  <outline>
    <contour>
      <point x="218" y="494" type="line"/>
      <point x="218" y="383" type="line"/>
      <point x="121" y="387"/>
      <point x="58" y="330"/>
      <point x="58" y="227" type="curve" smooth="yes"/>
      <point x="58" y="97"/>
      <point x="158" y="-9"/>
      <point x="267" y="-9" type="curve" smooth="yes"/>
      <point x="310" y="-9"/>
      <point x="339" y="9"/>
      <point x="339" y="47" type="curve" smooth="yes"/>
      <point x="339" y="80"/>
      <point x="312" y="99"/>
      <point x="280" y="99" type="curve" smooth="yes"/>
      <point x="254" y="99"/>
      <point x="227" y="89"/>
      <point x="204" y="89" type="curve" smooth="yes"/>
      <point x="159" y="89"/>
      <point x="115" y="134"/>
      <point x="115" y="190" type="curve" smooth="yes"/>
      <point x="115" y="252"/>
      <point x="164" y="284"/>
      <point x="245" y="284" type="curve" smooth="yes"/>
      <point x="275" y="284" type="line"/>
      <point x="275" y="494" type="line"/>
    </contour>
    <contour>
      <point x="318" y="654" type="curve" smooth="yes"/>
      <point x="318" y="693"/>
      <point x="288" y="724"/>
      <point x="249" y="724" type="curve" smooth="yes"/>
      <point x="209" y="724"/>
      <point x="178" y="693"/>
      <point x="178" y="654" type="curve" smooth="yes"/>
      <point x="178" y="615"/>
      <point x="209" y="584"/>
      <point x="249" y="584" type="curve" smooth="yes"/>
      <point x="288" y="584"/>
      <point x="318" y="615"/>
    </contour>
  </outline>
</glyph>
<glyph name="AE" format="1">
  <advance width="1028"/>
  <unicode hex="00C6"/>
  <outline>
    <contour>
      <point x="371" y="37" type="curve"/>
      <point x="371" y="0" type="line"/>
      <point x="976" y="0" type="line"/>
      <point x="989" y="195" type="line"/>
      <point x="952" y="195" type="line"/>
      <point x="927" y="79"/>
      <point x="880" y="44"/>
      <point x="748" y="44" type="curve" smooth="yes"/>
      <point x="628" y="44"/>
      <point x="590" y="69"/>
      <point x="590" y="150" type="curve" smooth="yes"/>
      <point x="590" y="352" type="line"/>
      <point x="733" y="352"/>
      <point x="760" y="331"/>
      <point x="774" y="241" type="curve"/>
      <point x="807" y="241" type="line"/>
      <point x="807" y="503" type="line"/>
      <point x="774" y="503" type="line"/>
      <point x="764" y="411"/>
      <point x="728" y="394"/>
      <point x="590" y="394" type="curve"/>
      <point x="590" y="655" type="line"/>
      <point x="590" y="664"/>
      <point x="596" y="670"/>
      <point x="607" y="670" type="curve" smooth="yes"/>
      <point x="727" y="670" type="line"/>
      <point x="854" y="670"/>
      <point x="897" y="644"/>
      <point x="912" y="543" type="curve"/>
      <point x="948" y="543" type="line"/>
      <point x="948" y="714" type="line"/>
      <point x="316" y="714" type="line"/>
      <point x="316" y="675" type="line"/>
      <point x="372" y="675"/>
      <point x="393" y="669"/>
      <point x="393" y="652" type="curve" smooth="yes"/>
      <point x="393" y="646"/>
      <point x="391" y="639"/>
      <point x="386" y="631" type="curve" smooth="yes"/>
      <point x="95" y="112" type="line"/>
      <point x="66" y="59"/>
      <point x="43" y="43"/>
      <point x="-15" y="37" type="curve"/>
      <point x="-15" y="0" type="line"/>
      <point x="231" y="0" type="line"/>
      <point x="231" y="37" type="line"/>
      <point x="200" y="39"/>
      <point x="156" y="45"/>
      <point x="156" y="80" type="curve" smooth="yes"/>
      <point x="156" y="97"/>
      <point x="162" y="118"/>
      <point x="179" y="148" type="curve" smooth="yes"/>
      <point x="241" y="259" type="line"/>
      <point x="470" y="259" type="line"/>
      <point x="470" y="142" type="line"/>
      <point x="470" y="55"/>
      <point x="456" y="39"/>
    </contour>
    <contour>
      <point x="268" y="307" type="line"/>
      <point x="470" y="669" type="line"/>
      <point x="470" y="307" type="line"/>
    </contour>
  </outline>
</glyph>
<glyph name="Eth" format="1">
  <advance width="828"/>
  <unicode hex="00D0"/>
  <outline>
    <contour>
      <point x="33" y="0" type="line"/>
      <point x="33" y="36" type="line"/>
      <point x="122" y="39"/>
      <point x="139" y="54"/>
      <point x="139" y="142" type="curve" smooth="yes"/>
      <point x="139" y="572" type="line"/>
      <point x="139" y="659"/>
      <point x="126" y="675"/>
      <point x="50" y="678" type="curve"/>
      <point x="50" y="714" type="line"/>
      <point x="392" y="714" type="line"/>
      <point x="611" y="714"/>
      <point x="779" y="564"/>
      <point x="779" y="345" type="curve" smooth="yes"/>
      <point x="779" y="137"/>
      <point x="623" y="0"/>
      <point x="411" y="0" type="curve"/>
    </contour>
    <contour>
      <point x="274" y="664" type="line"/>
      <point x="264" y="664"/>
      <point x="258" y="657"/>
      <point x="258" y="648" type="curve" smooth="yes"/>
      <point x="258" y="156" type="line"/>
      <point x="258" y="85"/>
      <point x="300" y="51"/>
      <point x="388" y="51" type="curve"/>
      <point x="554" y="51"/>
      <point x="645" y="147"/>
      <point x="645" y="344" type="curve" smooth="yes"/>
      <point x="645" y="550"/>
      <point x="547" y="664"/>
      <point x="380" y="664" type="curve"/>
    </contour>
    <contour>
      <point x="61" y="350" type="line"/>
      <point x="61" y="402" type="line"/>
      <point x="405" y="402" type="line"/>
      <point x="405" y="350" type="line"/>
    </contour>
  </outline>
</glyph>
<glyph name="Oslash" format="1">
  <advance width="854"/>
  <unicode hex="00D8"/>
  <outline>
    <contour>
      <point x="427" y="724" type="curve" smooth="yes"/>
      <point x="208" y="724"/>
      <point x="49" y="562"/>
      <point x="49" y="352" type="curve" smooth="yes"/>
      <point x="49" y="150"/>
      <point x="209" y="-9"/>
      <point x="427" y="-9" type="curve" smooth="yes"/>
      <point x="645" y="-9"/>
      <point x="805" y="150"/>
      <point x="805" y="352" type="curve" smooth="yes"/>
      <point x="805" y="562"/>
      <point x="647" y="724"/>
    </contour>
    <contour>
      <point x="427" y="46" type="curve" smooth="yes"/>
      <point x="273" y="46"/>
      <point x="184" y="163"/>
      <point x="184" y="349" type="curve" smooth="yes"/>
      <point x="184" y="545"/>
      <point x="273" y="668"/>
      <point x="427" y="668" type="curve" smooth="yes"/>
      <point x="582" y="668"/>
      <point x="671" y="545"/>
      <point x="671" y="349" type="curve" smooth="yes"/>
      <point x="671" y="163"/>
      <point x="581" y="46"/>
    </contour>
    <contour>
      <point x="803" y="770" type="line"/>
      <point x="731" y="770" type="line"/>
      <point x="48" y="-75" type="line"/>
      <point x="120" y="-75" type="line"/>
    </contour>
  </outline>
</glyph>
<glyph name="Thorn" format="1">
  <advance width="668"/>
  <unicode hex="00DE"/>
  <outline>
    <contour>
      <point x="262" y="571" type="line"/>
      <point x="262" y="660"/>
      <point x="273" y="679"/>
      <point x="388" y="679" type="curve"/>
      <point x="388" y="714" type="line"/>
      <point x="37" y="714" type="line"/>
      <point x="37" y="678" type="line"/>
      <point x="126" y="675"/>
      <point x="142" y="659"/>
      <point x="142" y="572" type="curve" smooth="yes"/>
      <point x="142" y="141" type="line"/>
      <point x="142" y="54"/>
      <point x="126" y="39"/>
      <point x="37" y="37" type="curve"/>
      <point x="37" y="0" type="line"/>
      <point x="388" y="0" type="line"/>
      <point x="388" y="37" type="line"/>
      <point x="273" y="37"/>
      <point x="262" y="53"/>
      <point x="262" y="142" type="curve" smooth="yes"/>
      <point x="262" y="159" type="line"/>
      <point x="343" y="159" type="line"/>
      <point x="560" y="159"/>
      <point x="638" y="230"/>
      <point x="638" y="358" type="curve" smooth="yes"/>
      <point x="638" y="482"/>
      <point x="540" y="555"/>
      <point x="361" y="555" type="curve" smooth="yes"/>
      <point x="262" y="555" type="line"/>
    </contour>
    <contour>
      <point x="262" y="492" type="line"/>
      <point x="262" y="501"/>
      <point x="268" y="507"/>
      <point x="278" y="507" type="curve" smooth="yes"/>
      <point x="357" y="507" type="line"/>
      <point x="448" y="507"/>
      <point x="504" y="461"/>
      <point x="504" y="363" type="curve" smooth="yes"/>
      <point x="504" y="254"/>
      <point x="438" y="210"/>
      <point x="321" y="210" type="curve" smooth="yes"/>
      <point x="262" y="210" type="line"/>
    </contour>
  </outline>
</glyph>
<glyph name="ae" format="1">
  <advance width="814"/>
  <unicode hex="00E6"/>
  <outline>
    <contour>
      <point x="771" y="82" type="line"/>
      <point x="723" y="26"/>
      <point x="652" y="-7"/>
      <point x="572" y="-7" type="curve"/>
      <point x="474" y="-7"/>
      <point x="399" y="34"/>
      <point x="360" y="108" type="curve"/>
      <point x="317" y="22"/>
      <point x="249" y="-8"/>
      <point x="176" y="-8" type="curve"/>
      <point x="90" y="-8"/>
      <point x="36" y="40"/>
      <point x="36" y="113" type="curve" smooth="yes"/>
      <point x="36" y="176"/>
      <point x="77" y="223"/>
      <point x="188" y="260" type="curve" smooth="yes"/>
      <point x="330" y="308" type="line"/>
      <point x="330" y="353" type="line"/>
      <point x="330" y="427"/>
      <point x="302" y="462"/>
      <point x="249" y="462" type="curve"/>
      <point x="206" y="462"/>
      <point x="187" y="446"/>
      <point x="173" y="400" type="curve" smooth="yes"/>
      <point x="163" y="368"/>
      <point x="142" y="349"/>
      <point x="111" y="349" type="curve"/>
      <point x="81" y="349"/>
      <point x="59" y="368"/>
      <point x="59" y="402" type="curve" smooth="yes"/>
      <point x="59" y="465"/>
      <point x="148" y="501"/>
      <point x="260" y="501" type="curve" smooth="yes"/>
      <point x="338" y="501"/>
      <point x="385" y="479"/>
      <point x="411" y="439" type="curve"/>
      <point x="454" y="479"/>
      <point x="509" y="501"/>
      <point x="581" y="501" type="curve"/>
      <point x="708" y="501"/>
      <point x="776" y="430"/>
      <point x="776" y="307" type="curve" smooth="yes"/>
      <point x="776" y="289"/>
      <point x="773" y="287"/>
      <point x="746" y="287" type="curve" smooth="yes"/>
      <point x="451" y="287" type="line"/>
      <point x="451" y="276"/>
      <point x="450" y="266"/>
      <point x="450" y="254" type="curve"/>
      <point x="450" y="121"/>
      <point x="498" y="47"/>
      <point x="596" y="47" type="curve"/>
      <point x="654" y="47"/>
      <point x="701" y="69"/>
      <point x="745" y="111" type="curve"/>
    </contour>
    <contour>
      <point x="577" y="452" type="curve"/>
      <point x="521" y="452"/>
      <point x="474" y="418"/>
      <point x="457" y="334" type="curve"/>
      <point x="608" y="334" type="line"/>
      <point x="659" y="334"/>
      <point x="665" y="337"/>
      <point x="665" y="359" type="curve" smooth="yes"/>
      <point x="665" y="414"/>
      <point x="636" y="452"/>
    </contour>
    <contour>
      <point x="330" y="199" type="curve" smooth="yes"/>
      <point x="330" y="267" type="line"/>
      <point x="187" y="222"/>
      <point x="147" y="173"/>
      <point x="147" y="126" type="curve"/>
      <point x="147" y="83"/>
      <point x="172" y="57"/>
      <point x="214" y="57" type="curve" smooth="yes"/>
      <point x="273" y="57"/>
      <point x="330" y="109"/>
    </contour>
    <contour>
      <point x="410" y="604" type="move" name="top"/>
    </contour>
  </outline>
</glyph>
<glyph name="eth" format="1">
  <advance width="621"/>
  <unicode hex="00F0"/>
  <outline>
    <contour>
      <point x="159" y="688" type="line"/>
      <point x="213" y="669"/>
      <point x="250" y="650"/>
      <point x="282" y="628" type="curve"/>
      <point x="172" y="566" type="line"/>
      <point x="196" y="531" type="line"/>
      <point x="318" y="600" type="line"/>
      <point x="375" y="547"/>
      <point x="420" y="478"/>
      <point x="446" y="384" type="curve"/>
      <point x="444" y="382" type="line"/>
      <point x="414" y="437"/>
      <point x="355" y="469"/>
      <point x="283" y="469" type="curve" smooth="yes"/>
      <point x="141" y="469"/>
      <point x="42" y="365"/>
      <point x="42" y="235" type="curve" smooth="yes"/>
      <point x="42" y="86"/>
      <point x="151" y="-9"/>
      <point x="300" y="-9" type="curve" smooth="yes"/>
      <point x="458" y="-9"/>
      <point x="570" y="113"/>
      <point x="570" y="286" type="curve" smooth="yes"/>
      <point x="570" y="437"/>
      <point x="496" y="562"/>
      <point x="384" y="636" type="curve"/>
      <point x="489" y="696" type="line"/>
      <point x="464" y="730" type="line"/>
      <point x="341" y="661" type="line"/>
      <point x="293" y="688"/>
      <point x="234" y="708"/>
      <point x="177" y="724" type="curve"/>
    </contour>
    <contour>
      <point x="172" y="228" type="curve" smooth="yes"/>
      <point x="172" y="349"/>
      <point x="228" y="419"/>
      <point x="302" y="419" type="curve" smooth="yes"/>
      <point x="378" y="419"/>
      <point x="432" y="345"/>
      <point x="432" y="226" type="curve" smooth="yes"/>
      <point x="432" y="109"/>
      <point x="378" y="37"/>
      <point x="301" y="37" type="curve" smooth="yes"/>
      <point x="228" y="37"/>
      <point x="172" y="108"/>
    </contour>
  </outline>
</glyph>
<glyph name="divide" format="1">
  <advance width="550"/>
  <unicode hex="00F7"/>
  <outline>
    <contour>
      <point x="213" y="145" type="curve" smooth="yes"/>
      <point x="213" y="110"/>
      <point x="241" y="82"/>
      <point x="277" y="82" type="curve" smooth="yes"/>
      <point x="315" y="82"/>
      <point x="343" y="110"/>
      <point x="343" y="145" type="curve" smooth="yes"/>
      <point x="343" y="182"/>
      <point x="315" y="212"/>
      <point x="277" y="212" type="curve" smooth="yes"/>
      <point x="241" y="212"/>
      <point x="213" y="182"/>
    </contour>
    <contour>
      <point x="213" y="478" type="curve" smooth="yes"/>
      <point x="213" y="444"/>
      <point x="241" y="415"/>
      <point x="277" y="415" type="curve" smooth="yes"/>
      <point x="315" y="415"/>
      <point x="343" y="444"/>
      <point x="343" y="478" type="curve" smooth="yes"/>
      <point x="343" y="516"/>
      <point x="315" y="545"/>
      <point x="277" y="545" type="curve" smooth="yes"/>
      <point x="241" y="545"/>
      <point x="213" y="516"/>
    </contour>
    <contour>
      <point x="498" y="340" type="line"/>
      <point x="53" y="340" type="line"/>
      <point x="53" y="287" type="line"/>
      <point x="498" y="287" type="line"/>
    </contour>
  </outline>
</glyph>
<glyph name="gcommaaccent" format="1">
  <advance width="587"/>
  <unicode hex="0123"/>
  <outline>
    <contour>
      <point x="305" y="789" type="line"/>
      <point x="241" y="754"/>
      <point x="217" y="715"/>
      <point x="217" y="674" type="curve" smooth="yes"/>
      <point x="217" y="631"/>
      <point x="239" y="604"/>
      <point x="277" y="604" type="curve" smooth="yes"/>
      <point x="313" y="604"/>
      <point x="337" y="627"/>
      <point x="337" y="656" type="curve" smooth="yes"/>
      <point x="337" y="683"/>
      <point x="319" y="701"/>
      <point x="296" y="701" type="curve" smooth="yes"/>
      <point x="285" y="701"/>
      <point x="277" y="698"/>
      <point x="271" y="694" type="curve"/>
      <point x="271" y="719"/>
      <point x="289" y="741"/>
      <point x="328" y="763" type="curve"/>
    </contour>
    <component base="g" xOffset="4"/>
  </outline>
</glyph>
<glyph name="Hbar" format="1">
  <advance width="874"/>
  <unicode hex="0126"/>
  <outline>
    <contour>
      <point x="63" y="502" type="line"/>
      <point x="63" y="553" type="line"/>
      <point x="814" y="553" type="line"/>
      <point x="814" y="502" type="line"/>
    </contour>
    <component base="H" xOffset="-4"/>
  </outline>
</glyph>
<glyph name="kgreenlandic" format="1">
  <advance width="612"/>
  <unicode hex="0138"/>
  <outline>
    <contour>
      <point x="344" y="0" type="line"/>
      <point x="611" y="0" type="line"/>
      <point x="611" y="35" type="line"/>
      <point x="571" y="35"/>
      <point x="548" y="44"/>
      <point x="514" y="86" type="curve" smooth="yes"/>
      <point x="343" y="300" type="line"/>
      <point x="463" y="405" type="line"/>
      <point x="509" y="445"/>
      <point x="532" y="457"/>
      <point x="577" y="457" type="curve"/>
      <point x="577" y="492" type="line"/>
      <point x="331" y="492" type="line"/>
      <point x="331" y="457" type="line"/>
      <point x="391" y="457"/>
      <point x="407" y="452"/>
      <point x="407" y="440" type="curve" smooth="yes"/>
      <point x="407" y="428"/>
      <point x="391" y="408"/>
      <point x="323" y="346" type="curve" smooth="yes"/>
      <point x="225" y="257" type="line"/>
      <point x="225" y="506" type="line"/>
      <point x="29" y="470" type="line"/>
      <point x="29" y="437" type="line"/>
      <point x="107" y="437"/>
      <point x="115" y="430"/>
      <point x="115" y="304" type="curve" smooth="yes"/>
      <point x="115" y="143" type="line"/>
      <point x="115" y="54"/>
      <point x="99" y="35"/>
      <point x="28" y="35" type="curve"/>
      <point x="28" y="0" type="line"/>
      <point x="301" y="0" type="line"/>
      <point x="301" y="35" type="line"/>
      <point x="238" y="35"/>
      <point x="225" y="54"/>
      <point x="225" y="150" type="curve" smooth="yes"/>
      <point x="225" y="195" type="line"/>
      <point x="266" y="232" type="line"/>
      <point x="360" y="104" type="line"/>
      <point x="385" y="73"/>
      <point x="392" y="61"/>
      <point x="392" y="51" type="curve" smooth="yes"/>
      <point x="392" y="39"/>
      <point x="382" y="35"/>
      <point x="344" y="35" type="curve"/>
    </contour>
  </outline>
</glyph>
<glyph name="Lslash" format="1">
  <advance width="688"/>
  <unicode hex="0141"/>
  <outline>
    <contour>
      <point x="56" y="244" type="line"/>
      <point x="56" y="306" type="line"/>
      <point x="377" y="494" type="line"/>
      <point x="377" y="433" type="line"/>
    </contour>
    <component base="L" xOffset="-4"/>
  </outline>
</glyph>
<glyph name="OE" format="1">
  <advance width="1069"/>
  <unicode hex="0152"/>
  <outline>
    <contour>
      <point x="430" y="714" type="line"/>
      <point x="211" y="714"/>
      <point x="48" y="557"/>
      <point x="48" y="354" type="curve" smooth="yes"/>
      <point x="48" y="146"/>
      <point x="209" y="0"/>
      <point x="423" y="0" type="curve"/>
      <point x="1018" y="0" type="line"/>
      <point x="1034" y="196" type="line"/>
      <point x="998" y="196" type="line"/>
      <point x="973" y="83"/>
      <point x="929" y="45"/>
      <point x="789" y="45" type="curve" smooth="yes"/>
      <point x="670" y="45"/>
      <point x="633" y="70"/>
      <point x="633" y="151" type="curve" smooth="yes"/>
      <point x="633" y="355" type="line"/>
      <point x="774" y="355"/>
      <point x="807" y="325"/>
      <point x="815" y="241" type="curve"/>
      <point x="849" y="241" type="line"/>
      <point x="849" y="503" type="line"/>
      <point x="815" y="503" type="line"/>
      <point x="810" y="419"/>
      <point x="770" y="392"/>
      <point x="633" y="392" type="curve"/>
      <point x="633" y="655" type="line"/>
      <point x="633" y="664"/>
      <point x="638" y="670"/>
      <point x="648" y="670" type="curve" smooth="yes"/>
      <point x="769" y="670" type="line"/>
      <point x="898" y="670"/>
      <point x="944" y="640"/>
      <point x="959" y="543" type="curve"/>
      <point x="995" y="543" type="line"/>
      <point x="987" y="714" type="line"/>
    </contour>
    <contour>
      <point x="426" y="667" type="curve" smooth="yes"/>
      <point x="493" y="667"/>
      <point x="513" y="648"/>
      <point x="513" y="573" type="curve" smooth="yes"/>
      <point x="513" y="141" type="line"/>
      <point x="513" y="66"/>
      <point x="498" y="48"/>
      <point x="426" y="48" type="curve"/>
      <point x="273" y="48"/>
      <point x="182" y="158"/>
      <point x="182" y="351" type="curve" smooth="yes"/>
      <point x="182" y="540"/>
      <point x="272" y="667"/>
    </contour>
  </outline>
</glyph>
<glyph name="dotlessj" format="1">
  <advance width="291"/>
  <unicode hex="0237"/>
  <outline>
    <contour>
      <point x="209" y="501" type="line"/>
      <point x="9" y="465" type="line"/>
      <point x="9" y="433" type="line"/>
      <point x="68" y="433"/>
      <point x="84" y="425"/>
      <point x="90" y="397" type="curve" smooth="yes"/>
      <point x="94" y="380"/>
      <point x="97" y="334"/>
      <point x="97" y="264" type="curve" smooth="yes"/>
      <point x="97" y="-67" type="line"/>
      <point x="97" y="-163"/>
      <point x="80" y="-197"/>
      <point x="28" y="-197" type="curve" smooth="yes"/>
      <point x="-2" y="-197"/>
      <point x="-13" y="-182"/>
      <point x="-28" y="-153" type="curve" smooth="yes"/>
      <point x="-40" y="-124"/>
      <point x="-50" y="-102"/>
      <point x="-82" y="-102" type="curve"/>
      <point x="-114" y="-102"/>
      <point x="-134" y="-123"/>
      <point x="-134" y="-150" type="curve"/>
      <point x="-134" y="-206"/>
      <point x="-78" y="-241"/>
      <point x="12" y="-241" type="curve" smooth="yes"/>
      <point x="148" y="-241"/>
      <point x="209" y="-159"/>
      <point x="209" y="3" type="curve" smooth="yes"/>
    </contour>
    <contour>
      <point x="148" y="604" type="move" name="top"/>
    </contour>
  </outline>
</glyph>
<glyph name="schwa" format="1">
  <advance width="526"/>
  <unicode hex="0259"/>
  <outline>
    <contour>
      <point x="385" y="160" type="line"/>
      <point x="389" y="207" type="line"/>
      <point x="69" y="207" type="line"/>
      <point x="43" y="207"/>
      <point x="40" y="205"/>
      <point x="40" y="187" type="curve" smooth="yes"/>
      <point x="40" y="64"/>
      <point x="109" y="-7"/>
      <point x="234" y="-7" type="curve"/>
      <point x="387" y="-7"/>
      <point x="485" y="94"/>
      <point x="485" y="252" type="curve"/>
      <point x="485" y="410"/>
      <point x="390" y="501"/>
      <point x="243" y="501" type="curve"/>
      <point x="164" y="501"/>
      <point x="92" y="467"/>
      <point x="45" y="412" type="curve"/>
      <point x="71" y="382" type="line"/>
      <point x="114" y="425"/>
      <point x="162" y="447"/>
      <point x="219" y="447" type="curve"/>
      <point x="317" y="447"/>
      <point x="365" y="372"/>
      <point x="365" y="239" type="curve"/>
      <point x="365" y="98"/>
      <point x="310" y="42"/>
      <point x="239" y="42" type="curve"/>
      <point x="180" y="42"/>
      <point x="151" y="80"/>
      <point x="151" y="135" type="curve" smooth="yes"/>
      <point x="151" y="157"/>
      <point x="157" y="160"/>
      <point x="207" y="160" type="curve" smooth="yes"/>
    </contour>
  </outline>
</glyph>
<glyph name="circumflex" format="1">
  <advance width="349"/>
  <unicode hex="02C6"/>
  <outline>
    <contour>
      <point x="130" y="732" type="line"/>
      <point x="19" y="604" type="line"/>
      <point x="64" y="604" type="line"/>
      <point x="174" y="667" type="line"/>
      <point x="285" y="604" type="line"/>
      <point x="330" y="604" type="line"/>
      <point x="219" y="732" type="line"/>
    </contour>
    <contour>
      <point x="174" y="604" type="move" name="_top"/>
    </contour>
  </outline>
</glyph>
<glyph name="breve" format="1">
  <advance width="300"/>
  <unicode hex="02D8"/>
  <outline>
    <contour>
      <point x="246" y="724" type="line"/>
      <point x="235" y="692"/>
      <point x="196" y="672"/>
      <point x="149" y="672" type="curve" smooth="yes"/>
      <point x="103" y="672"/>
      <point x="64" y="692"/>
      <point x="53" y="724" type="curve"/>
      <point x="17" y="724" type="line"/>
      <point x="20" y="652"/>
      <point x="75" y="599"/>
      <point x="150" y="599" type="curve" smooth="yes"/>
      <point x="222" y="599"/>
      <point x="278" y="651"/>
      <point x="283" y="724" type="curve"/>
    </contour>
    <contour>
      <point x="150" y="604" type="move" name="_top"/>
    </contour>
  </outline>
</glyph>
<glyph name="ring" format="1">
  <advance width="203"/>
  <unicode hex="02DA"/>
  <outline>
    <contour>
      <point x="19" y="688" type="curve" smooth="yes"/>
      <point x="19" y="643"/>
      <point x="54" y="609"/>
      <point x="101" y="609" type="curve" smooth="yes"/>
      <point x="149" y="609"/>
      <point x="184" y="643"/>
      <point x="184" y="688" type="curve" smooth="yes"/>
      <point x="184" y="736"/>
      <point x="149" y="770"/>
      <point x="101" y="770" type="curve" smooth="yes"/>
      <point x="54" y="770"/>
      <point x="19" y="736"/>
    </contour>
    <contour>
      <point x="61" y="690" type="curve" smooth="yes"/>
      <point x="61" y="713"/>
      <point x="79" y="729"/>
      <point x="103" y="729" type="curve" smooth="yes"/>
      <point x="125" y="729"/>
      <point x="141" y="713"/>
      <point x="141" y="690" type="curve" smooth="yes"/>
      <point x="141" y="667"/>
      <point x="125" y="650"/>
      <point x="103" y="650" type="curve" smooth="yes"/>
      <point x="79" y="650"/>
      <point x="61" y="667"/>
    </contour>
    <contour>
      <point x="101" y="604" type="move" name="_top"/>
    </contour>
  </outline>
</glyph>
<glyph name="tilde" format="1">
  <advance width="362"/>
  <unicode hex="02DC"/>
  <outline>
    <contour>
      <point x="51" y="617" type="line"/>
      <point x="60" y="645"/>
      <point x="71" y="655"/>
      <point x="93" y="655" type="curve" smooth="yes"/>
      <point x="141" y="655"/>
      <point x="194" y="610"/>
      <point x="247" y="610" type="curve" smooth="yes"/>
      <point x="303" y="610"/>
      <point x="339" y="660"/>
      <point x="347" y="723" type="curve"/>
      <point x="311" y="723" type="line"/>
      <point x="302" y="694"/>
      <point x="290" y="684"/>
      <point x="267" y="684" type="curve" smooth="yes"/>
      <point x="224" y="684"/>
      <point x="169" y="726"/>
      <point x="119" y="726" type="curve" smooth="yes"/>
      <point x="64" y="726"/>
      <point x="26" y="684"/>
      <point x="14" y="617" type="curve"/>
    </contour>
    <contour>
      <point x="182" y="604" type="move" name="_top"/>
    </contour>
  </outline>
</glyph>
<glyph name="hungarumlaut" format="1">
  <advance width="465"/>
  <unicode hex="02DD"/>
  <outline>
    <contour>
      <point x="66" y="604" type="line"/>
      <point x="194" y="662" type="line"/>
      <point x="227" y="677"/>
      <point x="248" y="693"/>
      <point x="248" y="712" type="curve" smooth="yes"/>
      <point x="248" y="736"/>
      <point x="232" y="749"/>
      <point x="206" y="749" type="curve" smooth="yes"/>
      <point x="184" y="749"/>
      <point x="162" y="739"/>
      <point x="136" y="714" type="curve" smooth="yes"/>
      <point x="17" y="604" type="line"/>
    </contour>
    <contour>
      <point x="265" y="604" type="line"/>
      <point x="394" y="662" type="line"/>
      <point x="428" y="677"/>
      <point x="448" y="693"/>
      <point x="448" y="712" type="curve" smooth="yes"/>
      <point x="448" y="736"/>
      <point x="432" y="749"/>
      <point x="406" y="749" type="curve" smooth="yes"/>
      <point x="384" y="749"/>
      <point x="363" y="739"/>
      <point x="336" y="714" type="curve" smooth="yes"/>
      <point x="217" y="604" type="line"/>
    </contour>
    <contour>
      <point x="205" y="604" type="move" name="_top"/>
    </contour>
  </outline>
</glyph>
<glyph name="endash" format="1">
  <advance width="674"/>
  <unicode hex="2013"/>
  <outline>
    <contour>
      <point x="607" y="228" type="line"/>
      <point x="607" y="309" type="line"/>
      <point x="66" y="309" type="line"/>
      <point x="66" y="228" type="line"/>
    </contour>
  </outline>
</glyph>
<glyph name="emdash" format="1">
  <advance width="1042"/>
  <unicode hex="2014"/>
  <outline>
    <contour>
      <point x="976" y="228" type="line"/>
      <point x="976" y="309" type="line"/>
      <point x="66" y="309" type="line"/>
      <point x="66" y="228" type="line"/>
    </contour>
  </outline>
</glyph>
<glyph name="quoteleft" format="1">
  <advance width="251"/>
  <unicode hex="2018"/>
  <outline>
    <contour>
      <point x="175" y="770" type="line"/>
      <point x="91" y="724"/>
      <point x="47" y="669"/>
      <point x="47" y="602" type="curve" smooth="yes"/>
      <point x="47" y="547"/>
      <point x="72" y="509"/>
      <point x="121" y="509" type="curve" smooth="yes"/>
      <point x="168" y="509"/>
      <point x="196" y="539"/>
      <point x="196" y="576" type="curve" smooth="yes"/>
      <point x="196" y="614"/>
      <point x="173" y="637"/>
      <point x="141" y="637" type="curve" smooth="yes"/>
      <point x="128" y="637"/>
      <point x="117" y="633"/>
      <point x="110" y="629" type="curve"/>
      <point x="110" y="667"/>
      <point x="137" y="703"/>
      <point x="199" y="739" type="curve"/>
    </contour>
  </outline>
</glyph>
<glyph name="quoteright" format="1">
  <advance width="247"/>
  <unicode hex="2019"/>
  <outline>
    <contour>
      <point x="79" y="509" type="line"/>
      <point x="164" y="556"/>
      <point x="207" y="611"/>
      <point x="207" y="677" type="curve" smooth="yes"/>
      <point x="207" y="732"/>
      <point x="183" y="770"/>
      <point x="133" y="770" type="curve" smooth="yes"/>
      <point x="87" y="770"/>
      <point x="59" y="741"/>
      <point x="59" y="703" type="curve" smooth="yes"/>
      <point x="59" y="666"/>
      <point x="82" y="643"/>
      <point x="114" y="643" type="curve" smooth="yes"/>
      <point x="127" y="643"/>
      <point x="137" y="646"/>
      <point x="144" y="650" type="curve"/>
      <point x="144" y="613"/>
      <point x="118" y="577"/>
      <point x="55" y="541" type="curve"/>
    </contour>
  </outline>
</glyph>
<glyph name="quotesinglbase" format="1">
  <advance width="266"/>
  <unicode hex="201A"/>
  <outline>
    <contour>
      <point x="80" y="-149" type="line"/>
      <point x="174" y="-94"/>
      <point x="209" y="-39"/>
      <point x="209" y="27" type="curve" smooth="yes"/>
      <point x="209" y="82"/>
      <point x="184" y="120"/>
      <point x="134" y="120" type="curve" smooth="yes"/>
      <point x="88" y="120"/>
      <point x="60" y="91"/>
      <point x="60" y="53" type="curve" smooth="yes"/>
      <point x="60" y="17"/>
      <point x="83" y="-7"/>
      <point x="116" y="-7" type="curve" smooth="yes"/>
      <point x="129" y="-7"/>
      <point x="139" y="-4"/>
      <point x="146" y="0" type="curve"/>
      <point x="146" y="-37"/>
      <point x="127" y="-72"/>
      <point x="56" y="-117" type="curve"/>
    </contour>
  </outline>
</glyph>
<glyph name="quotedblright" format="1">
  <advance width="439"/>
  <unicode hex="201D"/>
  <outline>
    <contour>
      <point x="79" y="509" type="line"/>
      <point x="164" y="556"/>
      <point x="207" y="611"/>
      <point x="207" y="677" type="curve" smooth="yes"/>
      <point x="207" y="732"/>
      <point x="183" y="770"/>
      <point x="133" y="770" type="curve" smooth="yes"/>
      <point x="87" y="770"/>
      <point x="59" y="741"/>
      <point x="59" y="703" type="curve" smooth="yes"/>
      <point x="59" y="666"/>
      <point x="82" y="643"/>
      <point x="114" y="643" type="curve" smooth="yes"/>
      <point x="127" y="643"/>
      <point x="137" y="646"/>
      <point x="144" y="650" type="curve"/>
      <point x="144" y="613"/>
      <point x="118" y="577"/>
      <point x="55" y="541" type="curve"/>
    </contour>
    <contour>
      <point x="271" y="509" type="line"/>
      <point x="356" y="556"/>
      <point x="399" y="611"/>
      <point x="399" y="677" type="curve" smooth="yes"/>
      <point x="399" y="732"/>
      <point x="374" y="770"/>
      <point x="325" y="770" type="curve" smooth="yes"/>
      <point x="279" y="770"/>
      <point x="251" y="741"/>
      <point x="251" y="703" type="curve" smooth="yes"/>
      <point x="251" y="666"/>
      <point x="274" y="643"/>
      <point x="306" y="643" type="curve" smooth="yes"/>
      <point x="319" y="643"/>
      <point x="329" y="646"/>
      <point x="336" y="650" type="curve"/>
      <point x="336" y="613"/>
      <point x="309" y="577"/>
      <point x="247" y="541" type="curve"/>
    </contour>
  </outline>
</glyph>
<glyph name="quotedblbase" format="1">
  <advance width="454"/>
  <unicode hex="201E"/>
  <outline>
    <contour>
      <point x="80" y="-149" type="line"/>
      <point x="174" y="-94"/>
      <point x="209" y="-39"/>
      <point x="209" y="27" type="curve" smooth="yes"/>
      <point x="209" y="82"/>
      <point x="184" y="120"/>
      <point x="134" y="120" type="curve" smooth="yes"/>
      <point x="88" y="120"/>
      <point x="60" y="91"/>
      <point x="60" y="53" type="curve" smooth="yes"/>
      <point x="60" y="17"/>
      <point x="83" y="-7"/>
      <point x="116" y="-7" type="curve" smooth="yes"/>
      <point x="129" y="-7"/>
      <point x="139" y="-4"/>
      <point x="146" y="0" type="curve"/>
      <point x="146" y="-37"/>
      <point x="127" y="-72"/>
      <point x="56" y="-117" type="curve"/>
    </contour>
    <contour>
      <point x="268" y="-149" type="line"/>
      <point x="361" y="-94"/>
      <point x="397" y="-39"/>
      <point x="397" y="27" type="curve" smooth="yes"/>
      <point x="397" y="82"/>
      <point x="371" y="120"/>
      <point x="322" y="120" type="curve" smooth="yes"/>
      <point x="276" y="120"/>
      <point x="248" y="91"/>
      <point x="248" y="53" type="curve" smooth="yes"/>
      <point x="248" y="17"/>
      <point x="272" y="-7"/>
      <point x="303" y="-7" type="curve" smooth="yes"/>
      <point x="316" y="-7"/>
      <point x="327" y="-4"/>
      <point x="333" y="0" type="curve"/>
      <point x="333" y="-37"/>
      <point x="315" y="-72"/>
      <point x="245" y="-117" type="curve"/>
    </contour>
  </outline>
</glyph>
<glyph name="ellipsis" format="1">
  <advance width="700"/>
  <unicode hex="2026"/>
  <outline>
    <contour>
      <point x="57" y="59" type="curve" smooth="yes"/>
      <point x="57" y="21"/>
      <point x="88" y="-9"/>
      <point x="126" y="-9" type="curve" smooth="yes"/>
      <point x="166" y="-9"/>
      <point x="197" y="21"/>
      <point x="197" y="59" type="curve" smooth="yes"/>
      <point x="197" y="99"/>
      <point x="166" y="131"/>
      <point x="126" y="131" type="curve" smooth="yes"/>
      <point x="88" y="131"/>
      <point x="57" y="99"/>
    </contour>
    <contour>
      <point x="280" y="59" type="curve" smooth="yes"/>
      <point x="280" y="21"/>
      <point x="310" y="-9"/>
      <point x="349" y="-9" type="curve" smooth="yes"/>
      <point x="389" y="-9"/>
      <point x="420" y="21"/>
      <point x="420" y="59" type="curve" smooth="yes"/>
      <point x="420" y="99"/>
      <point x="389" y="131"/>
      <point x="349" y="131" type="curve" smooth="yes"/>
      <point x="310" y="131"/>
      <point x="280" y="99"/>
    </contour>
    <contour>
      <point x="503" y="59" type="curve" smooth="yes"/>
      <point x="503" y="21"/>
      <point x="534" y="-9"/>
      <point x="572" y="-9" type="curve" smooth="yes"/>
      <point x="613" y="-9"/>
      <point x="643" y="21"/>
      <point x="643" y="59" type="curve" smooth="yes"/>
      <point x="643" y="99"/>
      <point x="613" y="131"/>
      <point x="572" y="131" type="curve" smooth="yes"/>
      <point x="534" y="131"/>
      <point x="503" y="99"/>
    </contour>
  </outline>
</glyph>
<glyph name="fraction" format="1">
  <advance width="37"/>
  <unicode hex="2044"/>
  <outline>
    <contour>
      <point x="308" y="714" type="line"/>
      <point x="254" y="714" type="line"/>
      <point x="-270" y="0" type="line"/>
      <point x="-208" y="0" type="line"/>
    </contour>
  </outline>
</glyph>
<glyph name="zerosuperior" format="1">
  <advance width="289"/>
  <unicode hex="2070"/>
  <outline>
    <contour>
      <point x="145" y="724" type="curve" smooth="yes"/>
      <point x="82" y="724"/>
      <point x="30" y="659"/>
      <point x="30" y="575" type="curve" smooth="yes"/>
      <point x="30" y="495"/>
      <point x="82" y="431"/>
      <point x="145" y="431" type="curve" smooth="yes"/>
      <point x="207" y="431"/>
      <point x="259" y="495"/>
      <point x="259" y="575" type="curve" smooth="yes"/>
      <point x="259" y="659"/>
      <point x="207" y="724"/>
    </contour>
    <contour>
      <point x="145" y="458" type="curve" smooth="yes"/>
      <point x="110" y="458"/>
      <point x="91" y="484"/>
      <point x="91" y="573" type="curve" smooth="yes"/>
      <point x="91" y="667"/>
      <point x="110" y="696"/>
      <point x="145" y="696" type="curve" smooth="yes"/>
      <point x="179" y="696"/>
      <point x="198" y="667"/>
      <point x="198" y="573" type="curve" smooth="yes"/>
      <point x="198" y="484"/>
      <point x="178" y="458"/>
    </contour>
  </outline>
</glyph>
<glyph name="foursuperior" format="1">
  <advance width="258"/>
  <unicode hex="2074"/>
  <outline>
    <contour>
      <point x="15" y="526" type="line"/>
      <point x="152" y="724" type="line"/>
      <point x="176" y="724" type="line"/>
      <point x="176" y="525" type="line"/>
      <point x="208" y="526"/>
      <point x="211" y="530"/>
      <point x="211" y="559" type="curve"/>
      <point x="229" y="559" type="line"/>
      <point x="229" y="472" type="line"/>
      <point x="211" y="472" type="line"/>
      <point x="211" y="497"/>
      <point x="207" y="501"/>
      <point x="176" y="502" type="curve"/>
      <point x="176" y="495" type="line"/>
      <point x="176" y="458"/>
      <point x="181" y="451"/>
      <point x="206" y="450" type="curve"/>
      <point x="206" y="434" type="line"/>
      <point x="83" y="434" type="line"/>
      <point x="83" y="450" type="line"/>
      <point x="117" y="452"/>
      <point x="123" y="458"/>
      <point x="123" y="492" type="curve" smooth="yes"/>
      <point x="123" y="501" type="line"/>
      <point x="15" y="501" type="line"/>
    </contour>
    <contour>
      <point x="123" y="639" type="line"/>
      <point x="119" y="639" type="line"/>
      <point x="42" y="526" type="line"/>
      <point x="123" y="526" type="line"/>
    </contour>
  </outline>
</glyph>
<glyph name="sixsuperior" format="1">
  <advance width="272"/>
  <unicode hex="2076"/>
  <outline>
    <contour>
      <point x="244" y="531" type="curve" smooth="yes"/>
      <point x="244" y="584"/>
      <point x="204" y="624"/>
      <point x="151" y="624" type="curve" smooth="yes"/>
      <point x="126" y="624"/>
      <point x="104" y="614"/>
      <point x="88" y="591" type="curve"/>
      <point x="85" y="592" type="line"/>
      <point x="85" y="654"/>
      <point x="113" y="698"/>
      <point x="144" y="698" type="curve" smooth="yes"/>
      <point x="181" y="698"/>
      <point x="173" y="662"/>
      <point x="203" y="662" type="curve" smooth="yes"/>
      <point x="216" y="662"/>
      <point x="224" y="670"/>
      <point x="224" y="683" type="curve" smooth="yes"/>
      <point x="224" y="706"/>
      <point x="193" y="724"/>
      <point x="154" y="724" type="curve" smooth="yes"/>
      <point x="86" y="724"/>
      <point x="31" y="650"/>
      <point x="31" y="561" type="curve" smooth="yes"/>
      <point x="31" y="483"/>
      <point x="74" y="431"/>
      <point x="137" y="431" type="curve" smooth="yes"/>
      <point x="196" y="431"/>
      <point x="244" y="475"/>
    </contour>
    <contour>
      <point x="89" y="555" type="line"/>
      <point x="105" y="585"/>
      <point x="121" y="598"/>
      <point x="142" y="598" type="curve" smooth="yes"/>
      <point x="171" y="598"/>
      <point x="186" y="574"/>
      <point x="186" y="528" type="curve" smooth="yes"/>
      <point x="186" y="477"/>
      <point x="170" y="452"/>
      <point x="138" y="452" type="curve" smooth="yes"/>
      <point x="106" y="452"/>
      <point x="89" y="481"/>
      <point x="89" y="537" type="curve" smooth="yes"/>
    </contour>
  </outline>
</glyph>
<glyph name="eightsuperior" format="1">
  <advance width="259"/>
  <unicode hex="2078"/>
  <outline>
    <contour>
      <point x="140" y="554" type="line"/>
      <point x="176" y="533"/>
      <point x="183" y="520"/>
      <point x="183" y="501" type="curve" smooth="yes"/>
      <point x="183" y="475"/>
      <point x="159" y="456"/>
      <point x="133" y="456" type="curve" smooth="yes"/>
      <point x="98" y="456"/>
      <point x="76" y="474"/>
      <point x="76" y="507" type="curve" smooth="yes"/>
      <point x="76" y="534"/>
      <point x="92" y="555"/>
      <point x="117" y="567" type="curve"/>
    </contour>
    <contour>
      <point x="168" y="595" type="curve"/>
      <point x="195" y="610"/>
      <point x="217" y="627"/>
      <point x="217" y="659" type="curve" smooth="yes"/>
      <point x="217" y="679"/>
      <point x="206" y="696"/>
      <point x="189" y="708" type="curve" smooth="yes"/>
      <point x="172" y="719"/>
      <point x="150" y="724"/>
      <point x="129" y="724" type="curve" smooth="yes"/>
      <point x="106" y="724"/>
      <point x="82" y="718"/>
      <point x="65" y="703" type="curve" smooth="yes"/>
      <point x="50" y="689"/>
      <point x="40" y="670"/>
      <point x="40" y="650" type="curve" smooth="yes"/>
      <point x="40" y="614"/>
      <point x="65" y="593"/>
      <point x="94" y="577" type="curve"/>
      <point x="61" y="562"/>
      <point x="31" y="539"/>
      <point x="31" y="500" type="curve" smooth="yes"/>
      <point x="31" y="453"/>
      <point x="85" y="431"/>
      <point x="129" y="431" type="curve" smooth="yes"/>
      <point x="182" y="431"/>
      <point x="229" y="462"/>
      <point x="229" y="513" type="curve" smooth="yes"/>
      <point x="229" y="552"/>
      <point x="201" y="578"/>
    </contour>
    <contour>
      <point x="127" y="614" type="line"/>
      <point x="98" y="629"/>
      <point x="87" y="643"/>
      <point x="87" y="662" type="curve" smooth="yes"/>
      <point x="87" y="681"/>
      <point x="103" y="698"/>
      <point x="131" y="698" type="curve" smooth="yes"/>
      <point x="161" y="698"/>
      <point x="177" y="678"/>
      <point x="177" y="653" type="curve" smooth="yes"/>
      <point x="177" y="635"/>
      <point x="161" y="615"/>
      <point x="145" y="605" type="curve"/>
    </contour>
  </outline>
</glyph>
<glyph name="twoinferior" format="1">
  <advance width="264"/>
  <unicode hex="2082"/>
  <outline>
    <contour>
      <point x="94" y="42" type="line"/>
      <point x="166" y="95"/>
      <point x="225" y="149"/>
      <point x="225" y="210" type="curve" smooth="yes"/>
      <point x="225" y="256"/>
      <point x="184" y="289"/>
      <point x="127" y="289" type="curve" smooth="yes"/>
      <point x="72" y="289"/>
      <point x="31" y="257"/>
      <point x="31" y="213" type="curve" smooth="yes"/>
      <point x="31" y="180"/>
      <point x="53" y="157"/>
      <point x="81" y="157" type="curve" smooth="yes"/>
      <point x="100" y="157"/>
      <point x="114" y="167"/>
      <point x="115" y="181" type="curve"/>
      <point x="94" y="181"/>
      <point x="78" y="197"/>
      <point x="78" y="221" type="curve" smooth="yes"/>
      <point x="78" y="245"/>
      <point x="96" y="264"/>
      <point x="120" y="264" type="curve" smooth="yes"/>
      <point x="150" y="264"/>
      <point x="168" y="243"/>
      <point x="168" y="210" type="curve" smooth="yes"/>
      <point x="168" y="158"/>
      <point x="142" y="114"/>
      <point x="29" y="14" type="curve"/>
      <point x="29" y="0" type="line"/>
      <point x="220" y="0" type="line"/>
      <point x="234" y="79" type="line"/>
      <point x="213" y="79" type="line"/>
      <point x="203" y="46"/>
      <point x="193" y="38"/>
      <point x="170" y="38" type="curve" smooth="yes"/>
      <point x="94" y="38" type="line"/>
    </contour>
  </outline>
</glyph>
<glyph name="threeinferior" format="1">
  <advance width="261"/>
  <unicode hex="2083"/>
  <outline>
    <contour>
      <point x="170" y="75" type="curve" smooth="yes"/>
      <point x="170" y="113"/>
      <point x="154" y="135"/>
      <point x="126" y="135" type="curve"/>
      <point x="118" y="131"/>
      <point x="107" y="128"/>
      <point x="100" y="128" type="curve" smooth="yes"/>
      <point x="89" y="128"/>
      <point x="81" y="135"/>
      <point x="81" y="145" type="curve" smooth="yes"/>
      <point x="81" y="154"/>
      <point x="89" y="160"/>
      <point x="99" y="160" type="curve" smooth="yes"/>
      <point x="106" y="160"/>
      <point x="115" y="158"/>
      <point x="123" y="155" type="curve"/>
      <point x="147" y="155"/>
      <point x="164" y="180"/>
      <point x="164" y="215" type="curve" smooth="yes"/>
      <point x="164" y="245"/>
      <point x="151" y="259"/>
      <point x="124" y="259" type="curve" smooth="yes"/>
      <point x="101" y="259"/>
      <point x="87" y="249"/>
      <point x="87" y="231" type="curve" smooth="yes"/>
      <point x="87" y="218"/>
      <point x="97" y="208"/>
      <point x="112" y="208" type="curve"/>
      <point x="110" y="198"/>
      <point x="95" y="189"/>
      <point x="80" y="189" type="curve" smooth="yes"/>
      <point x="58" y="189"/>
      <point x="40" y="208"/>
      <point x="40" y="232" type="curve" smooth="yes"/>
      <point x="40" y="264"/>
      <point x="73" y="284"/>
      <point x="124" y="284" type="curve" smooth="yes"/>
      <point x="183" y="284"/>
      <point x="220" y="258"/>
      <point x="220" y="218" type="curve" smooth="yes"/>
      <point x="220" y="185"/>
      <point x="195" y="157"/>
      <point x="161" y="150" type="curve"/>
      <point x="161" y="146" type="line"/>
      <point x="201" y="137"/>
      <point x="230" y="107"/>
      <point x="230" y="71" type="curve" smooth="yes"/>
      <point x="230" y="25"/>
      <point x="184" y="-9"/>
      <point x="123" y="-9" type="curve" smooth="yes"/>
      <point x="69" y="-9"/>
      <point x="29" y="18"/>
      <point x="29" y="57" type="curve" smooth="yes"/>
      <point x="29" y="83"/>
      <point x="49" y="104"/>
      <point x="74" y="104" type="curve" smooth="yes"/>
      <point x="91" y="104"/>
      <point x="106" y="95"/>
      <point x="109" y="82" type="curve"/>
      <point x="93" y="82"/>
      <point x="80" y="69"/>
      <point x="80" y="52" type="curve" smooth="yes"/>
      <point x="80" y="31"/>
      <point x="97" y="18"/>
      <point x="121" y="18" type="curve" smooth="yes"/>
      <point x="153" y="18"/>
      <point x="170" y="37"/>
    </contour>
  </outline>
</glyph>
<glyph name="fourinferior" format="1">
  <advance width="258"/>
  <unicode hex="2084"/>
  <outline>
    <contour>
      <point x="15" y="92" type="line"/>
      <point x="152" y="289" type="line"/>
      <point x="176" y="289" type="line"/>
      <point x="176" y="91" type="line"/>
      <point x="208" y="92"/>
      <point x="211" y="96"/>
      <point x="211" y="125" type="curve"/>
      <point x="229" y="125" type="line"/>
      <point x="229" y="38" type="line"/>
      <point x="211" y="38" type="line"/>
      <point x="211" y="62"/>
      <point x="207" y="67"/>
      <point x="176" y="68" type="curve"/>
      <point x="176" y="60" type="line"/>
      <point x="176" y="24"/>
      <point x="181" y="17"/>
      <point x="206" y="16" type="curve"/>
      <point x="206" y="0" type="line"/>
      <point x="83" y="0" type="line"/>
      <point x="83" y="16" type="line"/>
      <point x="117" y="18"/>
      <point x="123" y="24"/>
      <point x="123" y="57" type="curve" smooth="yes"/>
      <point x="123" y="67" type="line"/>
      <point x="15" y="67" type="line"/>
    </contour>
    <contour>
      <point x="123" y="205" type="line"/>
      <point x="119" y="205" type="line"/>
      <point x="42" y="92" type="line"/>
      <point x="123" y="92" type="line"/>
    </contour>
  </outline>
</glyph>
<glyph name="fiveinferior" format="1">
  <advance width="245"/>
  <unicode hex="2085"/>
  <outline>
    <contour>
      <point x="104" y="237" type="line"/>
      <point x="137" y="237" type="line"/>
      <point x="173" y="237"/>
      <point x="198" y="255"/>
      <point x="204" y="284" type="curve"/>
      <point x="200" y="284" type="line"/>
      <point x="191" y="281"/>
      <point x="164" y="278"/>
      <point x="140" y="278" type="curve" smooth="yes"/>
      <point x="119" y="278"/>
      <point x="103" y="280"/>
      <point x="93" y="284" type="curve"/>
      <point x="54" y="134" type="line"/>
      <point x="53" y="132"/>
      <point x="52" y="128"/>
      <point x="52" y="126" type="curve" smooth="yes"/>
      <point x="52" y="121"/>
      <point x="56" y="119"/>
      <point x="62" y="119" type="curve" smooth="yes"/>
      <point x="69" y="119"/>
      <point x="72" y="122"/>
      <point x="77" y="131" type="curve" smooth="yes"/>
      <point x="88" y="152"/>
      <point x="102" y="161"/>
      <point x="121" y="161" type="curve" smooth="yes"/>
      <point x="144" y="161"/>
      <point x="156" y="143"/>
      <point x="156" y="107" type="curve" smooth="yes"/>
      <point x="156" y="50"/>
      <point x="133" y="17"/>
      <point x="92" y="17" type="curve" smooth="yes"/>
      <point x="72" y="17"/>
      <point x="65" y="25"/>
      <point x="59" y="40" type="curve" smooth="yes"/>
      <point x="52" y="59"/>
      <point x="48" y="67"/>
      <point x="34" y="67" type="curve" smooth="yes"/>
      <point x="23" y="67"/>
      <point x="15" y="61"/>
      <point x="15" y="46" type="curve" smooth="yes"/>
      <point x="15" y="13"/>
      <point x="48" y="-9"/>
      <point x="94" y="-9" type="curve" smooth="yes"/>
      <point x="162" y="-9"/>
      <point x="214" y="37"/>
      <point x="214" y="96" type="curve" smooth="yes"/>
      <point x="214" y="149"/>
      <point x="178" y="186"/>
      <point x="129" y="186" type="curve" smooth="yes"/>
      <point x="112" y="186"/>
      <point x="98" y="182"/>
      <point x="89" y="173" type="curve"/>
      <point x="87" y="176" type="line"/>
    </contour>
  </outline>
</glyph>
<glyph name="sixinferior" format="1">
  <advance width="273"/>
  <unicode hex="2086"/>
  <outline>
    <contour>
      <point x="244" y="92" type="curve" smooth="yes"/>
      <point x="244" y="144"/>
      <point x="204" y="185"/>
      <point x="151" y="185" type="curve" smooth="yes"/>
      <point x="126" y="185"/>
      <point x="104" y="175"/>
      <point x="88" y="152" type="curve"/>
      <point x="85" y="152" type="line"/>
      <point x="85" y="214"/>
      <point x="113" y="258"/>
      <point x="144" y="258" type="curve" smooth="yes"/>
      <point x="181" y="258"/>
      <point x="173" y="222"/>
      <point x="203" y="222" type="curve" smooth="yes"/>
      <point x="216" y="222"/>
      <point x="224" y="231"/>
      <point x="224" y="243" type="curve" smooth="yes"/>
      <point x="224" y="266"/>
      <point x="193" y="284"/>
      <point x="154" y="284" type="curve" smooth="yes"/>
      <point x="86" y="284"/>
      <point x="31" y="211"/>
      <point x="31" y="121" type="curve" smooth="yes"/>
      <point x="31" y="43"/>
      <point x="74" y="-9"/>
      <point x="137" y="-9" type="curve" smooth="yes"/>
      <point x="196" y="-9"/>
      <point x="244" y="35"/>
    </contour>
    <contour>
      <point x="89" y="116" type="line"/>
      <point x="105" y="145"/>
      <point x="121" y="158"/>
      <point x="142" y="158" type="curve" smooth="yes"/>
      <point x="171" y="158"/>
      <point x="186" y="134"/>
      <point x="186" y="88" type="curve" smooth="yes"/>
      <point x="186" y="37"/>
      <point x="170" y="12"/>
      <point x="138" y="12" type="curve" smooth="yes"/>
      <point x="106" y="12"/>
      <point x="89" y="41"/>
      <point x="89" y="97" type="curve" smooth="yes"/>
    </contour>
  </outline>
</glyph>
<glyph name="seveninferior" format="1">
  <advance width="218"/>
  <unicode hex="2087"/>
  <outline>
    <contour>
      <point x="118" y="147" type="line"/>
      <point x="58" y="40"/>
      <point x="49" y="24"/>
      <point x="49" y="11" type="curve" smooth="yes"/>
      <point x="49" y="-1"/>
      <point x="56" y="-9"/>
      <point x="71" y="-9" type="curve" smooth="yes"/>
      <point x="87" y="-9"/>
      <point x="100" y="3"/>
      <point x="113" y="39" type="curve" smooth="yes"/>
      <point x="145" y="121"/>
      <point x="155" y="154"/>
      <point x="210" y="273" type="curve"/>
      <point x="210" y="280" type="line"/>
      <point x="94" y="280" type="line"/>
      <point x="70" y="280"/>
      <point x="65" y="282"/>
      <point x="65" y="291" type="curve" smooth="yes"/>
      <point x="65" y="294"/>
      <point x="66" y="301"/>
      <point x="67" y="302" type="curve"/>
      <point x="46" y="302" type="line"/>
      <point x="20" y="199" type="line"/>
      <point x="39" y="199" type="line"/>
      <point x="45" y="213" type="line"/>
      <point x="56" y="238"/>
      <point x="61" y="241"/>
      <point x="101" y="241" type="curve" smooth="yes"/>
      <point x="167" y="241" type="line"/>
    </contour>
  </outline>
</glyph>
<glyph name="Euro" format="1">
  <advance width="692"/>
  <unicode hex="20AC"/>
  <outline>
    <contour>
      <point x="475" y="333" type="line"/>
      <point x="250" y="333" type="line"/>
      <point x="249" y="340"/>
      <point x="249" y="351"/>
      <point x="249" y="361" type="curve" smooth="yes"/>
      <point x="249" y="374"/>
      <point x="250" y="387"/>
      <point x="251" y="398" type="curve"/>
      <point x="475" y="398" type="line"/>
      <point x="475" y="454" type="line"/>
      <point x="255" y="454" type="line"/>
      <point x="262" y="615"/>
      <point x="332" y="675"/>
      <point x="409" y="675" type="curve"/>
      <point x="484" y="675"/>
      <point x="547" y="615"/>
      <point x="568" y="506" type="curve"/>
      <point x="613" y="506" type="line"/>
      <point x="613" y="714" type="line"/>
      <point x="582" y="714" type="line"/>
      <point x="566" y="667" type="line"/>
      <point x="522" y="703"/>
      <point x="470" y="724"/>
      <point x="406" y="724" type="curve"/>
      <point x="264" y="724"/>
      <point x="154" y="627"/>
      <point x="123" y="454" type="curve"/>
      <point x="37" y="454" type="line"/>
      <point x="37" y="398" type="line"/>
      <point x="116" y="398" type="line"/>
      <point x="115" y="386"/>
      <point x="114" y="375"/>
      <point x="114" y="362" type="curve" smooth="yes"/>
      <point x="114" y="353"/>
      <point x="115" y="342"/>
      <point x="115" y="333" type="curve"/>
      <point x="38" y="333" type="line"/>
      <point x="38" y="277" type="line"/>
      <point x="121" y="277" type="line"/>
      <point x="150" y="103"/>
      <point x="265" y="-9"/>
      <point x="413" y="-9" type="curve" smooth="yes"/>
      <point x="481" y="-9"/>
      <point x="536" y="15"/>
      <point x="579" y="64" type="curve"/>
      <point x="590" y="0" type="line"/>
      <point x="627" y="0" type="line"/>
      <point x="627" y="242" type="line"/>
      <point x="582" y="242" type="line"/>
      <point x="572" y="121"/>
      <point x="507" y="40"/>
      <point x="421" y="40" type="curve" smooth="yes"/>
      <point x="333" y="40"/>
      <point x="260" y="125"/>
      <point x="253" y="277" type="curve"/>
      <point x="475" y="277" type="line"/>
    </contour>
  </outline>
</glyph>
<glyph name="trademark" format="1">
  <advance width="828"/>
  <unicode hex="2122"/>
  <outline>
    <contour>
      <point x="347" y="714" type="line"/>
      <point x="63" y="714" type="line"/>
      <point x="63" y="642" type="line"/>
      <point x="81" y="642" type="line"/>
      <point x="83" y="685"/>
      <point x="102" y="692"/>
      <point x="142" y="692" type="curve" smooth="yes"/>
      <point x="173" y="692"/>
      <point x="181" y="687"/>
      <point x="181" y="678" type="curve" smooth="yes"/>
      <point x="181" y="495" type="line"/>
      <point x="181" y="461"/>
      <point x="172" y="450"/>
      <point x="132" y="449" type="curve"/>
      <point x="132" y="429" type="line"/>
      <point x="280" y="429" type="line"/>
      <point x="280" y="449" type="line"/>
      <point x="240" y="450"/>
      <point x="232" y="460"/>
      <point x="232" y="495" type="curve" smooth="yes"/>
      <point x="232" y="678" type="line"/>
      <point x="232" y="687"/>
      <point x="239" y="692"/>
      <point x="273" y="692" type="curve" smooth="yes"/>
      <point x="314" y="692"/>
      <point x="323" y="682"/>
      <point x="327" y="642" type="curve"/>
      <point x="347" y="642" type="line"/>
    </contour>
    <contour>
      <point x="568" y="508" type="line"/>
      <point x="658" y="714" type="line"/>
      <point x="757" y="714" type="line"/>
      <point x="757" y="694" type="line"/>
      <point x="726" y="694"/>
      <point x="719" y="682"/>
      <point x="719" y="637" type="curve" smooth="yes"/>
      <point x="719" y="506" type="line"/>
      <point x="719" y="457"/>
      <point x="725" y="450"/>
      <point x="761" y="449" type="curve"/>
      <point x="761" y="429" type="line"/>
      <point x="629" y="429" type="line"/>
      <point x="629" y="449" type="line"/>
      <point x="665" y="450"/>
      <point x="670" y="458"/>
      <point x="670" y="503" type="curve" smooth="yes"/>
      <point x="670" y="668" type="line"/>
      <point x="667" y="668" type="line"/>
      <point x="558" y="425" type="line"/>
      <point x="549" y="425" type="line"/>
      <point x="446" y="668" type="line"/>
      <point x="442" y="668" type="line"/>
      <point x="442" y="506" type="line"/>
      <point x="442" y="457"/>
      <point x="448" y="450"/>
      <point x="484" y="449" type="curve"/>
      <point x="484" y="429" type="line"/>
      <point x="371" y="429" type="line"/>
      <point x="371" y="449" type="line"/>
      <point x="407" y="450"/>
      <point x="413" y="457"/>
      <point x="413" y="503" type="curve" smooth="yes"/>
      <point x="413" y="640" type="line"/>
      <point x="413" y="682"/>
      <point x="405" y="694"/>
      <point x="375" y="694" type="curve"/>
      <point x="375" y="714" type="line"/>
      <point x="483" y="714" type="line"/>
      <point x="566" y="508" type="line"/>
    </contour>
  </outline>
</glyph>
<glyph name="twothirds" format="1">
  <advance width="645"/>
  <unicode hex="2154"/>
  <outline>
    <contour>
      <point x="614" y="714" type="line"/>
      <point x="561" y="714" type="line"/>
      <point x="36" y="0" type="line"/>
      <point x="99" y="0" type="line"/>
    </contour>
    <component base="threeinferior" xOffset="333"/>
    <component base="twosuperior" xOffset="51"/>
  </outline>
</glyph>
<glyph name="fiveeighths" format="1">
  <advance width="641"/>
  <unicode hex="215D"/>
  <outline>
    <contour>
      <point x="610" y="714" type="line"/>
      <point x="556" y="714" type="line"/>
      <point x="32" y="0" type="line"/>
      <point x="94" y="0" type="line"/>
    </contour>
    <component base="eightinferior" xOffset="328"/>
    <component base="fivesuperior" xOffset="56"/>
  </outline>
</glyph>
<glyph name="seveneighths" format="1">
  <advance width="643"/>
  <unicode hex="215E"/>
  <outline>
    <contour>
      <point x="606" y="714" type="line"/>
      <point x="552" y="714" type="line"/>
      <point x="28" y="0" type="line"/>
      <point x="90" y="0" type="line"/>
    </contour>
    <component base="eightinferior" xOffset="324"/>
    <component base="sevensuperior" xOffset="90"/>
  </outline>
</glyph>
<glyph name="minus" format="1">
  <advance width="588"/>
  <unicode hex="2212"/>
  <outline>
    <contour>
      <point x="516" y="340" type="line"/>
      <point x="72" y="340" type="line"/>
      <point x="72" y="287" type="line"/>
      <point x="516" y="287" type="line"/>
    </contour>
  </outline>
</glyph>
<glyph name="acute.cap" format="1">
  <advance width="283"/>
  <outline>
    <contour>
      <point x="80" y="780" type="line"/>
      <point x="189" y="806" type="line"/>
      <point x="241" y="818"/>
      <point x="265" y="834"/>
      <point x="265" y="857" type="curve" smooth="yes"/>
      <point x="265" y="878"/>
      <point x="248" y="890"/>
      <point x="221" y="890" type="curve" smooth="yes"/>
      <point x="193" y="890"/>
      <point x="167" y="879"/>
      <point x="137" y="860" type="curve" smooth="yes"/>
      <point x="18" y="780" type="line"/>
    </contour>
    <contour>
      <point x="114" y="770" type="move" name="_topcap"/>
    </contour>
  </outline>
</glyph>
<glyph name="breve.cap" format="1">
  <advance width="300"/>
  <outline>
    <contour>
      <point x="246" y="890" type="line"/>
      <point x="235" y="866"/>
      <point x="196" y="850"/>
      <point x="149" y="850" type="curve" smooth="yes"/>
      <point x="102" y="850"/>
      <point x="64" y="866"/>
      <point x="53" y="890" type="curve"/>
      <point x="17" y="890" type="line"/>
      <point x="20" y="826"/>
      <point x="75" y="778"/>
      <point x="150" y="778" type="curve" smooth="yes"/>
      <point x="222" y="778"/>
      <point x="278" y="825"/>
      <point x="283" y="890" type="curve"/>
    </contour>
    <contour>
      <point x="150" y="770" type="move" name="_topcap"/>
    </contour>
  </outline>
</glyph>
<glyph name="c_t" format="1">
  <advance width="870"/>
  <outline>
    <contour>
      <point x="296" y="501" type="curve"/>
      <point x="139" y="501"/>
      <point x="41" y="399"/>
      <point x="41" y="243" type="curve" smooth="yes"/>
      <point x="41" y="90"/>
      <point x="135" y="-7"/>
      <point x="283" y="-7" type="curve"/>
      <point x="361" y="-7"/>
      <point x="428" y="24"/>
      <point x="475" y="77" type="curve"/>
      <point x="449" y="107" type="line"/>
      <point x="408" y="67"/>
      <point x="364" y="47"/>
      <point x="309" y="47" type="curve"/>
      <point x="208" y="47"/>
      <point x="161" y="121"/>
      <point x="161" y="257" type="curve" smooth="yes"/>
      <point x="161" y="382"/>
      <point x="203" y="453"/>
      <point x="281" y="453" type="curve"/>
      <point x="315" y="453"/>
      <point x="330" y="444"/>
      <point x="364" y="399" type="curve" smooth="yes"/>
      <point x="388" y="368"/>
      <point x="403" y="357"/>
      <point x="426" y="357" type="curve" smooth="yes"/>
      <point x="456" y="357"/>
      <point x="477" y="375"/>
      <point x="477" y="404" type="curve" smooth="yes"/>
      <point x="477" y="424"/>
      <point x="467" y="442"/>
      <point x="451" y="457" type="curve" smooth="yes"/>
      <point x="420" y="489"/>
      <point x="403" y="528"/>
      <point x="403" y="577" type="curve"/>
      <point x="403" y="651"/>
      <point x="447" y="702"/>
      <point x="535" y="702" type="curve"/>
      <point x="612" y="702"/>
      <point x="653" y="652"/>
      <point x="653" y="584" type="curve" smooth="yes"/>
      <point x="653" y="523"/>
      <point x="625" y="492"/>
      <point x="539" y="474" type="curve"/>
      <point x="539" y="436" type="line"/>
      <point x="607" y="436" type="line"/>
      <point x="607" y="131" type="line"/>
      <point x="607" y="29"/>
      <point x="656" y="-9"/>
      <point x="736" y="-9" type="curve"/>
      <point x="793" y="-9"/>
      <point x="840" y="15"/>
      <point x="862" y="59" type="curve"/>
      <point x="841" y="81" type="line"/>
      <point x="826" y="55"/>
      <point x="802" y="43"/>
      <point x="773" y="43" type="curve"/>
      <point x="732" y="43"/>
      <point x="718" y="67"/>
      <point x="718" y="117" type="curve"/>
      <point x="718" y="436" type="line"/>
      <point x="834" y="436" type="line"/>
      <point x="834" y="484" type="line"/>
      <point x="718" y="484" type="line"/>
      <point x="718" y="565" type="line"/>
      <point x="718" y="683"/>
      <point x="647" y="750"/>
      <point x="537" y="750" type="curve"/>
      <point x="430" y="750"/>
      <point x="352" y="687"/>
      <point x="352" y="580" type="curve"/>
      <point x="352" y="547"/>
      <point x="359" y="514"/>
      <point x="371" y="491" type="curve"/>
      <point x="348" y="497"/>
      <point x="324" y="501"/>
    </contour>
  </outline>
</glyph>
<glyph name="caron.cap" format="1">
  <advance width="349"/>
  <outline>
    <contour>
      <point x="227" y="781" type="line"/>
      <point x="334" y="890" type="line"/>
      <point x="283" y="890" type="line"/>
      <point x="174" y="843" type="line"/>
      <point x="66" y="890" type="line"/>
      <point x="14" y="890" type="line"/>
      <point x="122" y="781" type="line"/>
    </contour>
    <contour>
      <point x="174" y="770" type="move" name="_topcap"/>
    </contour>
  </outline>
</glyph>
<glyph name="dieresis.cap" format="1">
  <advance width="307"/>
  <outline>
    <contour>
      <point x="10" y="842" type="curve" smooth="yes"/>
      <point x="10" y="812"/>
      <point x="32" y="791"/>
      <point x="61" y="791" type="curve" smooth="yes"/>
      <point x="91" y="791"/>
      <point x="113" y="812"/>
      <point x="113" y="842" type="curve" smooth="yes"/>
      <point x="113" y="869"/>
      <point x="91" y="890"/>
      <point x="61" y="890" type="curve" smooth="yes"/>
      <point x="32" y="890"/>
      <point x="10" y="869"/>
    </contour>
    <contour>
      <point x="194" y="842" type="curve" smooth="yes"/>
      <point x="194" y="812"/>
      <point x="216" y="791"/>
      <point x="245" y="791" type="curve" smooth="yes"/>
      <point x="274" y="791"/>
      <point x="296" y="812"/>
      <point x="296" y="842" type="curve" smooth="yes"/>
      <point x="296" y="869"/>
      <point x="274" y="890"/>
      <point x="245" y="890" type="curve" smooth="yes"/>
      <point x="216" y="890"/>
      <point x="194" y="869"/>
    </contour>
    <contour>
      <point x="152" y="770" type="move" name="_topcap"/>
    </contour>
  </outline>
</glyph>
<glyph name="f_f" format="1">
  <advance width="702"/>
  <outline>
    <contour>
      <point x="17" y="436" type="line"/>
      <point x="121" y="436" type="line"/>
      <point x="121" y="144" type="line"/>
      <point x="121" y="51"/>
      <point x="111" y="38"/>
      <point x="39" y="35" type="curve"/>
      <point x="39" y="0" type="line"/>
      <point x="315" y="0" type="line"/>
      <point x="315" y="35" type="line"/>
      <point x="248" y="37"/>
      <point x="230" y="59"/>
      <point x="230" y="152" type="curve" smooth="yes"/>
      <point x="230" y="436" type="line"/>
      <point x="381" y="436" type="line"/>
      <point x="381" y="484" type="line"/>
      <point x="230" y="484" type="line"/>
      <point x="230" y="529" type="line"/>
      <point x="230" y="644"/>
      <point x="258" y="685"/>
      <point x="323" y="685" type="curve"/>
      <point x="375" y="685"/>
      <point x="407" y="630"/>
      <point x="446" y="604" type="curve"/>
      <point x="485" y="655" type="line"/>
      <point x="481" y="695"/>
      <point x="423" y="733"/>
      <point x="336" y="733" type="curve"/>
      <point x="202" y="733"/>
      <point x="121" y="657"/>
      <point x="121" y="511" type="curve" smooth="yes"/>
      <point x="121" y="484" type="line"/>
      <point x="17" y="484" type="line"/>
    </contour>
    <contour>
      <point x="333" y="436" type="line"/>
      <point x="435" y="436" type="line"/>
      <point x="435" y="144" type="line"/>
      <point x="435" y="51"/>
      <point x="426" y="38"/>
      <point x="362" y="35" type="curve"/>
      <point x="362" y="0" type="line"/>
      <point x="645" y="0" type="line"/>
      <point x="645" y="35" type="line"/>
      <point x="565" y="37"/>
      <point x="546" y="59"/>
      <point x="546" y="152" type="curve" smooth="yes"/>
      <point x="546" y="436" type="line"/>
      <point x="701" y="436" type="line"/>
      <point x="701" y="484" type="line"/>
      <point x="546" y="484" type="line"/>
      <point x="546" y="566" type="line"/>
      <point x="546" y="682"/>
      <point x="575" y="722"/>
      <point x="629" y="722" type="curve" smooth="yes"/>
      <point x="655" y="722"/>
      <point x="673" y="709"/>
      <point x="691" y="687" type="curve" smooth="yes"/>
      <point x="711" y="664"/>
      <point x="727" y="649"/>
      <point x="752" y="649" type="curve" smooth="yes"/>
      <point x="779" y="649"/>
      <point x="798" y="667"/>
      <point x="798" y="697" type="curve" smooth="yes"/>
      <point x="798" y="741"/>
      <point x="741" y="770"/>
      <point x="657" y="770" type="curve" smooth="yes"/>
      <point x="553" y="770"/>
      <point x="480" y="728"/>
      <point x="451" y="647" type="curve"/>
      <point x="435" y="630" type="line"/>
      <point x="435" y="484" type="line"/>
      <point x="333" y="484" type="line"/>
    </contour>
  </outline>
</glyph>
<glyph name="f_f_b" format="1">
  <advance width="1263"/>
  <outline>
    <contour>
      <point x="333" y="430" type="line"/>
      <point x="435" y="430" type="line"/>
      <point x="435" y="144" type="line"/>
      <point x="435" y="51"/>
      <point x="429" y="38"/>
      <point x="362" y="35" type="curve"/>
      <point x="362" y="0" type="line"/>
      <point x="631" y="0" type="line"/>
      <point x="631" y="35" type="line"/>
      <point x="561" y="37"/>
      <point x="546" y="59"/>
      <point x="546" y="152" type="curve" smooth="yes"/>
      <point x="546" y="430" type="line"/>
      <point x="677" y="430" type="line"/>
      <point x="677" y="477" type="line"/>
      <point x="546" y="477" type="line"/>
      <point x="546" y="566" type="line"/>
      <point x="546" y="685"/>
      <point x="573" y="721"/>
      <point x="638" y="721" type="curve"/>
      <point x="690" y="721"/>
      <point x="733" y="684"/>
      <point x="755" y="657" type="curve"/>
      <point x="782" y="657"/>
      <point x="815" y="673"/>
      <point x="815" y="703" type="curve" smooth="yes"/>
      <point x="815" y="743"/>
      <point x="741" y="770"/>
      <point x="657" y="770" type="curve" smooth="yes"/>
      <point x="548" y="770"/>
      <point x="474" y="724"/>
      <point x="447" y="635" type="curve"/>
      <point x="435" y="635" type="line"/>
      <point x="435" y="477" type="line"/>
      <point x="333" y="477" type="line"/>
    </contour>
    <contour>
      <point x="862" y="270" type="line"/>
      <point x="862" y="391"/>
      <point x="903" y="451"/>
      <point x="981" y="451" type="curve" smooth="yes"/>
      <point x="1062" y="451"/>
      <point x="1102" y="371"/>
      <point x="1102" y="244" type="curve" smooth="yes"/>
      <point x="1102" y="116"/>
      <point x="1063" y="39"/>
      <point x="983" y="39" type="curve" smooth="yes"/>
      <point x="906" y="39"/>
      <point x="862" y="106"/>
      <point x="862" y="198" type="curve" smooth="yes"/>
    </contour>
    <contour>
      <point x="861" y="770" type="line"/>
      <point x="669" y="733" type="line"/>
      <point x="669" y="721" type="line"/>
      <point x="752" y="690" type="line"/>
      <point x="752" y="0" type="line"/>
      <point x="782" y="0" type="line"/>
      <point x="836" y="62" type="line"/>
      <point x="880" y="13"/>
      <point x="938" y="-10"/>
      <point x="1007" y="-10" type="curve" smooth="yes"/>
      <point x="1140" y="-10"/>
      <point x="1223" y="95"/>
      <point x="1223" y="246" type="curve" smooth="yes"/>
      <point x="1223" y="393"/>
      <point x="1145" y="501"/>
      <point x="1013" y="501" type="curve" smooth="yes"/>
      <point x="950" y="501"/>
      <point x="901" y="476"/>
      <point x="864" y="427" type="curve"/>
      <point x="861" y="427" type="line"/>
    </contour>
    <contour>
      <point x="17" y="430" type="line"/>
      <point x="121" y="430" type="line"/>
      <point x="121" y="144" type="line"/>
      <point x="121" y="51"/>
      <point x="111" y="38"/>
      <point x="39" y="35" type="curve"/>
      <point x="39" y="0" type="line"/>
      <point x="315" y="0" type="line"/>
      <point x="315" y="35" type="line"/>
      <point x="248" y="37"/>
      <point x="230" y="59"/>
      <point x="230" y="152" type="curve" smooth="yes"/>
      <point x="230" y="430" type="line"/>
      <point x="381" y="430" type="line"/>
      <point x="381" y="477" type="line"/>
      <point x="230" y="477" type="line"/>
      <point x="230" y="529" type="line"/>
      <point x="230" y="644"/>
      <point x="258" y="685"/>
      <point x="323" y="685" type="curve"/>
      <point x="375" y="685"/>
      <point x="407" y="630"/>
      <point x="446" y="604" type="curve"/>
      <point x="485" y="655" type="line"/>
      <point x="481" y="695"/>
      <point x="423" y="733"/>
      <point x="336" y="733" type="curve"/>
      <point x="202" y="733"/>
      <point x="121" y="657"/>
      <point x="121" y="511" type="curve" smooth="yes"/>
      <point x="121" y="477" type="line"/>
      <point x="17" y="477" type="line"/>
    </contour>
  </outline>
</glyph>
<glyph name="f_f_j" format="1">
  <advance width="934"/>
  <outline>
    <contour>
      <point x="333" y="430" type="line"/>
      <point x="435" y="430" type="line"/>
      <point x="435" y="144" type="line"/>
      <point x="435" y="51"/>
      <point x="422" y="38"/>
      <point x="362" y="35" type="curve"/>
      <point x="362" y="0" type="line"/>
      <point x="629" y="0" type="line"/>
      <point x="629" y="35" type="line"/>
      <point x="559" y="37"/>
      <point x="546" y="59"/>
      <point x="546" y="152" type="curve" smooth="yes"/>
      <point x="546" y="430" type="line"/>
      <point x="701" y="430" type="line"/>
      <point x="701" y="477" type="line"/>
      <point x="546" y="477" type="line"/>
      <point x="546" y="566" type="line"/>
      <point x="546" y="679"/>
      <point x="575" y="722"/>
      <point x="629" y="722" type="curve" smooth="yes"/>
      <point x="655" y="722"/>
      <point x="673" y="709"/>
      <point x="691" y="687" type="curve" smooth="yes"/>
      <point x="711" y="664"/>
      <point x="727" y="649"/>
      <point x="752" y="649" type="curve" smooth="yes"/>
      <point x="779" y="649"/>
      <point x="798" y="667"/>
      <point x="798" y="697" type="curve" smooth="yes"/>
      <point x="798" y="741"/>
      <point x="741" y="770"/>
      <point x="657" y="770" type="curve" smooth="yes"/>
      <point x="555" y="770"/>
      <point x="482" y="729"/>
      <point x="452" y="650" type="curve"/>
      <point x="435" y="636" type="line"/>
      <point x="435" y="477" type="line"/>
      <point x="333" y="477" type="line"/>
    </contour>
    <contour>
      <point x="17" y="430" type="line"/>
      <point x="121" y="430" type="line"/>
      <point x="121" y="144" type="line"/>
      <point x="121" y="51"/>
      <point x="111" y="38"/>
      <point x="39" y="35" type="curve"/>
      <point x="39" y="0" type="line"/>
      <point x="315" y="0" type="line"/>
      <point x="315" y="35" type="line"/>
      <point x="248" y="37"/>
      <point x="230" y="59"/>
      <point x="230" y="152" type="curve" smooth="yes"/>
      <point x="230" y="430" type="line"/>
      <point x="381" y="430" type="line"/>
      <point x="381" y="477" type="line"/>
      <point x="230" y="477" type="line"/>
      <point x="230" y="529" type="line"/>
      <point x="230" y="644"/>
      <point x="258" y="685"/>
      <point x="323" y="685" type="curve"/>
      <point x="375" y="685"/>
      <point x="407" y="630"/>
      <point x="446" y="604" type="curve"/>
      <point x="485" y="655" type="line"/>
      <point x="481" y="695"/>
      <point x="423" y="733"/>
      <point x="336" y="733" type="curve"/>
      <point x="202" y="733"/>
      <point x="121" y="657"/>
      <point x="121" y="511" type="curve" smooth="yes"/>
      <point x="121" y="477" type="line"/>
      <point x="17" y="477" type="line"/>
    </contour>
    <contour>
      <point x="853" y="501" type="line"/>
      <point x="652" y="473" type="line"/>
      <point x="652" y="430" type="line"/>
      <point x="711" y="430"/>
      <point x="728" y="420"/>
      <point x="734" y="393" type="curve" smooth="yes"/>
      <point x="738" y="376"/>
      <point x="741" y="334"/>
      <point x="741" y="264" type="curve" smooth="yes"/>
      <point x="741" y="-67" type="line"/>
      <point x="741" y="-163"/>
      <point x="724" y="-197"/>
      <point x="671" y="-197" type="curve" smooth="yes"/>
      <point x="641" y="-197"/>
      <point x="630" y="-182"/>
      <point x="616" y="-153" type="curve" smooth="yes"/>
      <point x="603" y="-124"/>
      <point x="594" y="-102"/>
      <point x="561" y="-102" type="curve"/>
      <point x="530" y="-102"/>
      <point x="510" y="-123"/>
      <point x="510" y="-150" type="curve"/>
      <point x="510" y="-206"/>
      <point x="570" y="-241"/>
      <point x="656" y="-241" type="curve" smooth="yes"/>
      <point x="792" y="-241"/>
      <point x="853" y="-159"/>
      <point x="853" y="3" type="curve" smooth="yes"/>
    </contour>
  </outline>
</glyph>
<glyph name="f_f_t" format="1">
  <advance width="1002"/>
  <outline>
    <contour>
      <point x="739" y="436" type="line"/>
      <point x="739" y="131" type="line"/>
      <point x="739" y="29"/>
      <point x="788" y="-9"/>
      <point x="868" y="-9" type="curve"/>
      <point x="926" y="-9"/>
      <point x="972" y="15"/>
      <point x="995" y="59" type="curve"/>
      <point x="973" y="81" type="line"/>
      <point x="958" y="55"/>
      <point x="935" y="43"/>
      <point x="905" y="43" type="curve"/>
      <point x="864" y="43"/>
      <point x="850" y="67"/>
      <point x="850" y="117" type="curve"/>
      <point x="850" y="436" type="line"/>
      <point x="966" y="436" type="line"/>
      <point x="966" y="484" type="line"/>
      <point x="850" y="484" type="line"/>
      <point x="850" y="599" type="line"/>
      <point x="814" y="599" type="line"/>
      <point x="788" y="522"/>
      <point x="743" y="484"/>
      <point x="665" y="484" type="curve"/>
      <point x="671" y="436" type="line"/>
    </contour>
    <contour>
      <point x="333" y="436" type="line"/>
      <point x="435" y="436" type="line"/>
      <point x="435" y="144" type="line"/>
      <point x="435" y="51"/>
      <point x="422" y="38"/>
      <point x="362" y="35" type="curve"/>
      <point x="362" y="0" type="line"/>
      <point x="629" y="0" type="line"/>
      <point x="629" y="35" type="line"/>
      <point x="559" y="37"/>
      <point x="546" y="59"/>
      <point x="546" y="152" type="curve" smooth="yes"/>
      <point x="546" y="436" type="line"/>
      <point x="701" y="436" type="line"/>
      <point x="701" y="484" type="line"/>
      <point x="546" y="484" type="line"/>
      <point x="546" y="566" type="line"/>
      <point x="546" y="679"/>
      <point x="575" y="722"/>
      <point x="629" y="722" type="curve" smooth="yes"/>
      <point x="655" y="722"/>
      <point x="673" y="709"/>
      <point x="691" y="687" type="curve" smooth="yes"/>
      <point x="711" y="664"/>
      <point x="727" y="649"/>
      <point x="752" y="649" type="curve" smooth="yes"/>
      <point x="779" y="649"/>
      <point x="798" y="667"/>
      <point x="798" y="697" type="curve" smooth="yes"/>
      <point x="798" y="741"/>
      <point x="741" y="770"/>
      <point x="657" y="770" type="curve" smooth="yes"/>
      <point x="555" y="770"/>
      <point x="482" y="729"/>
      <point x="452" y="650" type="curve"/>
      <point x="435" y="636" type="line"/>
      <point x="435" y="484" type="line"/>
      <point x="333" y="484" type="line"/>
    </contour>
    <contour>
      <point x="17" y="436" type="line"/>
      <point x="121" y="436" type="line"/>
      <point x="121" y="144" type="line"/>
      <point x="121" y="51"/>
      <point x="111" y="38"/>
      <point x="39" y="35" type="curve"/>
      <point x="39" y="0" type="line"/>
      <point x="315" y="0" type="line"/>
      <point x="315" y="35" type="line"/>
      <point x="248" y="37"/>
      <point x="230" y="59"/>
      <point x="230" y="152" type="curve" smooth="yes"/>
      <point x="230" y="436" type="line"/>
      <point x="381" y="436" type="line"/>
      <point x="381" y="484" type="line"/>
      <point x="230" y="484" type="line"/>
      <point x="230" y="529" type="line"/>
      <point x="230" y="644"/>
      <point x="258" y="685"/>
      <point x="323" y="685" type="curve"/>
      <point x="375" y="685"/>
      <point x="407" y="630"/>
      <point x="446" y="604" type="curve"/>
      <point x="485" y="655" type="line"/>
      <point x="481" y="695"/>
      <point x="423" y="733"/>
      <point x="336" y="733" type="curve"/>
      <point x="202" y="733"/>
      <point x="121" y="657"/>
      <point x="121" y="511" type="curve" smooth="yes"/>
      <point x="121" y="484" type="line"/>
      <point x="17" y="484" type="line"/>
    </contour>
  </outline>
</glyph>
<glyph name="f_j" format="1">
  <advance width="619"/>
  <outline>
    <contour>
      <point x="17" y="430" type="line"/>
      <point x="120" y="430" type="line"/>
      <point x="120" y="144" type="line"/>
      <point x="120" y="51"/>
      <point x="111" y="38"/>
      <point x="38" y="35" type="curve"/>
      <point x="38" y="0" type="line"/>
      <point x="315" y="0" type="line"/>
      <point x="315" y="35" type="line"/>
      <point x="246" y="37"/>
      <point x="230" y="59"/>
      <point x="230" y="152" type="curve" smooth="yes"/>
      <point x="230" y="430" type="line"/>
      <point x="385" y="430" type="line"/>
      <point x="385" y="477" type="line"/>
      <point x="230" y="477" type="line"/>
      <point x="230" y="566" type="line"/>
      <point x="230" y="679"/>
      <point x="260" y="722"/>
      <point x="313" y="722" type="curve" smooth="yes"/>
      <point x="339" y="722"/>
      <point x="358" y="709"/>
      <point x="375" y="688" type="curve" smooth="yes"/>
      <point x="395" y="664"/>
      <point x="411" y="649"/>
      <point x="436" y="649" type="curve" smooth="yes"/>
      <point x="463" y="649"/>
      <point x="482" y="667"/>
      <point x="482" y="697" type="curve" smooth="yes"/>
      <point x="482" y="741"/>
      <point x="425" y="770"/>
      <point x="342" y="770" type="curve" smooth="yes"/>
      <point x="201" y="770"/>
      <point x="120" y="694"/>
      <point x="120" y="548" type="curve" smooth="yes"/>
      <point x="120" y="477" type="line"/>
      <point x="17" y="477" type="line"/>
    </contour>
    <contour>
      <point x="537" y="501" type="line"/>
      <point x="337" y="473" type="line"/>
      <point x="337" y="430" type="line"/>
      <point x="396" y="430"/>
      <point x="412" y="420"/>
      <point x="418" y="393" type="curve" smooth="yes"/>
      <point x="423" y="376"/>
      <point x="425" y="334"/>
      <point x="425" y="264" type="curve" smooth="yes"/>
      <point x="425" y="-67" type="line"/>
      <point x="425" y="-163"/>
      <point x="409" y="-197"/>
      <point x="356" y="-197" type="curve" smooth="yes"/>
      <point x="325" y="-197"/>
      <point x="315" y="-182"/>
      <point x="301" y="-153" type="curve" smooth="yes"/>
      <point x="288" y="-124"/>
      <point x="278" y="-102"/>
      <point x="246" y="-102" type="curve"/>
      <point x="215" y="-102"/>
      <point x="194" y="-123"/>
      <point x="194" y="-150" type="curve"/>
      <point x="194" y="-206"/>
      <point x="255" y="-241"/>
      <point x="340" y="-241" type="curve" smooth="yes"/>
      <point x="476" y="-241"/>
      <point x="537" y="-159"/>
      <point x="537" y="3" type="curve" smooth="yes"/>
    </contour>
  </outline>
</glyph>
<glyph name="f_t" format="1">
  <advance width="695"/>
  <outline>
    <contour>
      <point x="18" y="436" type="line"/>
      <point x="121" y="436" type="line"/>
      <point x="121" y="144" type="line"/>
      <point x="121" y="51"/>
      <point x="111" y="38"/>
      <point x="40" y="35" type="curve"/>
      <point x="40" y="0" type="line"/>
      <point x="330" y="0" type="line"/>
      <point x="330" y="35" type="line"/>
      <point x="250" y="37"/>
      <point x="231" y="59"/>
      <point x="231" y="152" type="curve" smooth="yes"/>
      <point x="231" y="436" type="line"/>
      <point x="386" y="436" type="line"/>
      <point x="386" y="484" type="line"/>
      <point x="231" y="484" type="line"/>
      <point x="231" y="566" type="line"/>
      <point x="231" y="679"/>
      <point x="261" y="722"/>
      <point x="314" y="722" type="curve" smooth="yes"/>
      <point x="340" y="722"/>
      <point x="358" y="709"/>
      <point x="376" y="688" type="curve" smooth="yes"/>
      <point x="396" y="664"/>
      <point x="412" y="649"/>
      <point x="437" y="649" type="curve" smooth="yes"/>
      <point x="464" y="649"/>
      <point x="484" y="667"/>
      <point x="484" y="697" type="curve" smooth="yes"/>
      <point x="484" y="741"/>
      <point x="426" y="770"/>
      <point x="343" y="770" type="curve" smooth="yes"/>
      <point x="202" y="770"/>
      <point x="121" y="694"/>
      <point x="121" y="548" type="curve" smooth="yes"/>
      <point x="121" y="484" type="line"/>
      <point x="18" y="484" type="line"/>
    </contour>
    <contour>
      <point x="433" y="436" type="line"/>
      <point x="433" y="131" type="line"/>
      <point x="433" y="29"/>
      <point x="482" y="-9"/>
      <point x="561" y="-9" type="curve"/>
      <point x="619" y="-9"/>
      <point x="666" y="15"/>
      <point x="689" y="59" type="curve"/>
      <point x="667" y="81" type="line"/>
      <point x="652" y="55"/>
      <point x="629" y="43"/>
      <point x="599" y="43" type="curve"/>
      <point x="559" y="43"/>
      <point x="543" y="67"/>
      <point x="543" y="117" type="curve"/>
      <point x="543" y="436" type="line"/>
      <point x="660" y="436" type="line"/>
      <point x="660" y="484" type="line"/>
      <point x="543" y="484" type="line"/>
      <point x="543" y="599" type="line"/>
      <point x="507" y="599" type="line"/>
      <point x="482" y="522"/>
      <point x="437" y="484"/>
      <point x="358" y="484" type="curve"/>
      <point x="364" y="436" type="line"/>
    </contour>
  </outline>
</glyph>
<glyph name="grave.cap" format="1">
  <advance width="283"/>
  <outline>
    <contour>
      <point x="265" y="780" type="line"/>
      <point x="146" y="860" type="line"/>
      <point x="116" y="879"/>
      <point x="90" y="890"/>
      <point x="62" y="890" type="curve" smooth="yes"/>
      <point x="35" y="890"/>
      <point x="18" y="878"/>
      <point x="18" y="857" type="curve" smooth="yes"/>
      <point x="18" y="834"/>
      <point x="42" y="818"/>
      <point x="94" y="806" type="curve" smooth="yes"/>
      <point x="203" y="780" type="line"/>
    </contour>
    <contour>
      <point x="160" y="770" type="move" name="_topcap"/>
    </contour>
  </outline>
</glyph>
<glyph name="macron.cap" format="1">
  <advance width="294"/>
  <outline>
    <contour>
      <point x="275" y="810" type="line"/>
      <point x="275" y="863" type="line"/>
      <point x="19" y="863" type="line"/>
      <point x="19" y="810" type="line"/>
    </contour>
    <contour>
      <point x="147" y="770" type="move" name="_topcap"/>
    </contour>
  </outline>
</glyph>
<glyph name="ring.cap" format="1">
  <advance width="161"/>
  <outline>
    <contour>
      <point x="19" y="830" type="curve" smooth="yes"/>
      <point x="19" y="796"/>
      <point x="45" y="770"/>
      <point x="81" y="770" type="curve" smooth="yes"/>
      <point x="116" y="770"/>
      <point x="142" y="796"/>
      <point x="142" y="830" type="curve" smooth="yes"/>
      <point x="142" y="865"/>
      <point x="116" y="890"/>
      <point x="81" y="890" type="curve" smooth="yes"/>
      <point x="45" y="890"/>
      <point x="19" y="865"/>
    </contour>
    <contour>
      <point x="52" y="830" type="curve" smooth="yes"/>
      <point x="52" y="845"/>
      <point x="64" y="857"/>
      <point x="81" y="857" type="curve" smooth="yes"/>
      <point x="96" y="857"/>
      <point x="108" y="845"/>
      <point x="108" y="830" type="curve" smooth="yes"/>
      <point x="108" y="815"/>
      <point x="96" y="803"/>
      <point x="81" y="803" type="curve" smooth="yes"/>
      <point x="64" y="803"/>
      <point x="52" y="815"/>
    </contour>
    <contour>
      <point x="81" y="770" type="move" name="_topcap"/>
    </contour>
  </outline>
</glyph>
<glyph name="s_p" format="1">
  <advance width="1021"/>
  <outline>
    <contour>
      <point x="718" y="-197" type="line"/>
      <point x="624" y="-194"/>
      <point x="610" y="-179"/>
      <point x="610" y="-80" type="curve"/>
      <point x="610" y="52" type="line"/>
      <point x="614" y="52" type="line"/>
      <point x="650" y="9"/>
      <point x="696" y="-9"/>
      <point x="752" y="-9" type="curve"/>
      <point x="887" y="-9"/>
      <point x="980" y="94"/>
      <point x="980" y="246" type="curve" smooth="yes"/>
      <point x="980" y="396"/>
      <point x="888" y="501"/>
      <point x="756" y="501" type="curve"/>
      <point x="688" y="501"/>
      <point x="636" y="475"/>
      <point x="600" y="428" type="curve"/>
      <point x="596" y="428" type="line"/>
      <point x="596" y="619" type="line"/>
      <point x="632" y="621"/>
      <point x="666" y="640"/>
      <point x="666" y="680" type="curve" smooth="yes"/>
      <point x="666" y="707"/>
      <point x="650" y="730"/>
      <point x="614" y="730" type="curve"/>
      <point x="582" y="730"/>
      <point x="557" y="709"/>
      <point x="549" y="664" type="curve"/>
      <point x="511" y="671"/>
      <point x="460" y="733"/>
      <point x="373" y="733" type="curve" smooth="yes"/>
      <point x="295" y="733"/>
      <point x="222" y="683"/>
      <point x="222" y="590" type="curve"/>
      <point x="222" y="556"/>
      <point x="231" y="526"/>
      <point x="248" y="505" type="curve"/>
      <point x="232" y="505" type="line"/>
      <point x="123" y="501"/>
      <point x="55" y="449"/>
      <point x="55" y="369" type="curve"/>
      <point x="55" y="306"/>
      <point x="93" y="261"/>
      <point x="157" y="224" type="curve" smooth="yes"/>
      <point x="222" y="186" type="line"/>
      <point x="281" y="151"/>
      <point x="311" y="125"/>
      <point x="311" y="91" type="curve"/>
      <point x="311" y="56"/>
      <point x="286" y="35"/>
      <point x="236" y="35" type="curve"/>
      <point x="171" y="35"/>
      <point x="108" y="70"/>
      <point x="86" y="164" type="curve"/>
      <point x="55" y="164" type="line"/>
      <point x="55" y="0" type="line"/>
      <point x="79" y="0" type="line"/>
      <point x="99" y="32" type="line"/>
      <point x="134" y="10"/>
      <point x="187" y="-9"/>
      <point x="245" y="-9" type="curve"/>
      <point x="341" y="-9"/>
      <point x="408" y="47"/>
      <point x="408" y="128" type="curve"/>
      <point x="408" y="196"/>
      <point x="367" y="234"/>
      <point x="292" y="278" type="curve" smooth="yes"/>
      <point x="247" y="305" type="line"/>
      <point x="192" y="338"/>
      <point x="156" y="367"/>
      <point x="156" y="407" type="curve" smooth="yes"/>
      <point x="156" y="439"/>
      <point x="179" y="459"/>
      <point x="217" y="459" type="curve"/>
      <point x="288" y="459"/>
      <point x="291" y="374"/>
      <point x="352" y="374" type="curve" smooth="yes"/>
      <point x="382" y="374"/>
      <point x="401" y="394"/>
      <point x="401" y="421" type="curve" smooth="yes"/>
      <point x="401" y="441"/>
      <point x="387" y="459"/>
      <point x="363" y="474" type="curve" smooth="yes"/>
      <point x="324" y="499"/>
      <point x="271" y="526"/>
      <point x="271" y="593" type="curve"/>
      <point x="271" y="652"/>
      <point x="314" y="683"/>
      <point x="373" y="683" type="curve" smooth="yes"/>
      <point x="444" y="683"/>
      <point x="481" y="637"/>
      <point x="537" y="622" type="curve"/>
      <point x="513" y="566"/>
      <point x="499" y="509"/>
      <point x="499" y="417" type="curve"/>
      <point x="499" y="-87" type="line"/>
      <point x="499" y="-176"/>
      <point x="485" y="-194"/>
      <point x="414" y="-197" type="curve"/>
      <point x="414" y="-232" type="line"/>
      <point x="718" y="-232" type="line"/>
    </contour>
    <contour>
      <point x="736" y="452" type="curve"/>
      <point x="820" y="452"/>
      <point x="861" y="377"/>
      <point x="861" y="242" type="curve" smooth="yes"/>
      <point x="861" y="114"/>
      <point x="822" y="43"/>
      <point x="737" y="43" type="curve"/>
      <point x="672" y="43"/>
      <point x="611" y="88"/>
      <point x="611" y="215" type="curve" smooth="yes"/>
      <point x="611" y="284" type="line"/>
      <point x="611" y="402"/>
      <point x="666" y="452"/>
    </contour>
  </outline>
</glyph>
